<svg xmlns="http://www.w3.org/2000/svg" viewBox="0 0 448 98.190118"><defs><style>      .cls-1 {        fill: #153b44;      }      .cls-2 {        fill: #62cc62;      }    </style></defs><g id="Capa_1" data-name="Capa 1"><rect class="cls-2" x="436.86027" y="85.211215" width="11.13973" height="11.13973"></rect><g><path class="cls-1" d="M151.30328,35.132625h-5.555752c-1.315094,0-2.290606.856002-2.901272,2.55003l-13.045524,37.505212c-.991543,3.069363-1.668766,5.182648-2.030696,6.338396-.22396.714144-.438203,1.536139-.640787,2.456268-.202584-.921586-.416341-1.743581-.639815-2.456754-.362416-1.155262-1.039153-3.268547-2.034097-6.348112l-13.044552-37.50084c-.609695-1.688198-1.58472-2.5442-2.898843-2.5442h-5.556238c-.813736,0-1.401083.245335-1.745524.72969-.427029.600464-.427515,1.48853-.001457,2.71472l18.633339,53.400512c.868147,2.522339,2.058388,3.800997,3.538173,3.800997h7.499002c1.479299,0,2.66954-1.278659,3.537687-3.799054l18.634311-53.402941c.425086-1.226191.424114-2.114256-.003401-2.71472-.344441-.483869-.931303-.729205-1.744553-.729205Z"></path><path class="cls-1" d="M207.828538,81.503916l-3.803426-2.271174c-.640787-.387678-1.272829-.501844-1.884467-.339583-.806935.215215-1.513306.888551-2.162837,2.06276-.981341,1.81791-2.575778,3.529914-4.739101,5.087429-2.137089,1.540026-5.288555,2.320726-9.366951,2.320726-4.999011,0-8.916603-1.863091-11.64444-5.537291-2.761844-3.718895-4.162442-9.563219-4.162442-17.371198,0-7.807007,1.400597-13.651332,4.162442-17.371198,2.728809-3.6742,6.646401-5.537291,11.64444-5.537291,3.863181,0,6.784372.605322,8.682927,1.798478,1.914587,1.203358,3.42012,2.661281,4.473362,4.330533.772442,1.235907,1.555086,1.919931,2.392141,2.089965.584918.119024,1.163035-.020404,1.709574-.402739l3.583353-2.332386c1.360761-.906526,1.593465-2.217734.655847-3.691204-1.470069-2.319755-3.878727-4.614733-7.158933-6.821779-3.306926-2.223564-8.131044-3.351135-14.338271-3.351135-9.211491,0-16.159096,3.000378-20.649461,8.917089-4.458301,5.874931-6.719273,13.401624-6.719273,22.371666,0,8.971014,2.260971,16.497707,6.719273,22.371666,4.489879,5.916711,11.436998,8.917089,20.649461,8.917089,7.249294,0,12.663675-1.522536,16.093025-4.525829,3.423521-2.997463,5.565954-5.277381,6.549724-6.969466,1.253882-2.148749.108822-3.268547-.685967-3.745129Z"></path><path class="cls-1" d="M265.506629,92.724728v-35.222379c0-7.167678-1.739209-12.903666-5.170988-17.048133-3.455099-4.172158-9.279991-6.287386-17.312415-6.287386-2.940137,0-5.873473.338611-8.720335,1.007089-2.844918.668478-5.26135,1.494359-7.181281,2.453839-1.928676.964338-3.93751,2.426148-5.971607,4.344621-2.025352,1.91653-1.598323,3.286522-.886122,4.095885l2.958598,3.413319c.525163.591234,1.095993.891466,1.696457.893409h.004858c.65196,0,1.303921-.357072,1.938392-1.0615,1.329183-1.47687,2.738039-2.700146,4.188676-3.636307,1.449665-.936161,3.082966-1.701315,4.853267-2.273603,1.761556-.568401,4.156612-.856487,7.119097-.856487,4.565666,0,7.643774,1.230077,9.149793,3.656225,1.552657,2.501934,2.339673,5.519802,2.339673,8.969557v3.387085c-12.314376.558199-21.729422,2.422261-27.986687,5.541663-6.459849,3.220451-9.735197,8.35889-9.735197,15.272488,0,5.42604,1.747953,9.72791,5.194793,12.785614,3.429836,3.042158,8.366663,4.584613,14.675425,4.584613,3.557119,0,6.829552-.476582,9.725967-1.416143,2.645735-.858431,5.37503-2.329957,8.1257-4.380086v1.776616c0,1.969484.972597,3.053817,2.739011,3.053817h5.17196c1.987945,0,3.082966-1.084334,3.082966-3.053817ZM254.512692,83.010906c-2.628246,2.269716-5.208882,3.692175-7.674866,4.228512-2.567033.558199-5.322562.840941-8.188856.840941-1.847059,0-3.644566-.196754-5.342966-.583947-1.63233-.373104-2.873095-1.198985-3.792253-2.525739-.921101-1.327726-1.388452-3.134462-1.388452-5.3692,0-2.424204.981341-4.607446,2.916818-6.488998,1.971427-1.916045,4.570524-3.288465,7.727334-4.078396,3.13932-.784101,8.433705-1.463267,15.74324-2.019523v15.996349Z"></path><path class="cls-1" d="M312.119369,41.786799l1.305864-4.656999c.299261-1.049841-.14963-1.867949-1.252425-2.299836-1.066844-.445976-2.819656-.663134-5.358512-.663134-3.798082,0-7.022906.909441-9.585081,2.703061-2.12883,1.49193-4.04196,3.599385-5.703439,6.279127v-4.962575c0-1.969484-1.084334-3.053817-3.053817-3.053817h-4.771651c-1.969484,0-3.054789,1.084334-3.054789,3.053817v54.538285c0,1.969484,1.074617,3.053817,3.024669,3.053817h4.83092c1.950051,0,3.024669-1.084334,3.024669-3.053817v-28.348618c0-6.753766,1.428289-12.150657,4.246973-16.041044,2.780791-3.840834,6.354428-5.78797,10.620833-5.78797,1.139716,0,2.375623.130684,3.676629.389136,1.043525.200641,1.788762-.221045,2.049157-1.149432Z"></path><path class="cls-1" d="M425.859738,72.833134c-.588805-1.864063-1.669252-3.621247-3.211221-5.22297-1.532253-1.589579-3.732983-3.059161-6.54098-4.36794-2.139518-.992515-4.566638-1.843173-7.214316-2.528654-2.632132-.682081-5.538263-1.438977-8.720335-2.272631-1.971427-.511075-3.517283-1.189269-4.594815-2.015636-1.059071-.812279-1.789733-1.706659-2.169639-2.658852-.390593-.975997-.588805-2.108426-.588805-3.365709,0-1.616298.4965-3.038757,1.47687-4.228512.993001-1.204815,2.308581-2.06859,3.910791-2.568005,1.648848-.513018,3.663998-.772928,5.988125-.772928,1.867463,0,4.087627.430916,6.60122,1.280116,2.520395.853573,4.48405,1.768358,5.837523,2.719093,2.397971,1.690142,3.704806.93276,4.378142.005344l2.552459-3.404088c.510103-.664592.720946-1.320438.62767-1.94908-.096191-.649046-.51399-1.244166-1.245623-1.770301-2.109398-1.495331-4.642424-2.805567-7.526208-3.894273-2.902244-1.095507-6.775141-1.651277-11.508899-1.651277-3.213164,0-6.566242.494071-9.965958,1.468125-3.451212.988628-6.362201,2.867265-8.650378,5.582957-2.302751,2.729781-3.469673,6.029419-3.469673,9.808069,0,3.683431.726776,6.622596,2.158951,8.736852,1.414686,2.086565,3.096569,3.764075,5.000954,4.985408,1.883981,1.208702,3.912734,2.152149,6.025047,2.803138,3.107257.991058,5.65,1.734836,7.559243,2.209475,1.889811.470752,3.810713,1.071217,5.718985,1.786818,1.140688.405168,2.324127.974054,3.518254,1.690628,1.140688.68451,1.993775,1.598809,2.535941,2.716178.550911,1.141174.830739,2.36785.830739,3.646995,0,2.212876-.579089,3.994836-1.722691,5.295842-1.164978,1.325297-2.532055,2.241539-4.064308,2.722979-1.573061.493586-3.395829.743779-5.418753.743779-3.447326,0-6.551668-.505731-9.228495-1.502618-2.687515-1.000774-5.157386-2.353276-7.340627-4.019127-1.087248-.833654-2.017094-1.182953-2.852691-1.061986-.605322.086475-1.125142.420228-1.54877.997373l-2.554402,3.577523c-.583947.809849-.918186,2.111827.798676,3.718409,1.233964,1.193156,3.840834,2.573835,7.97024,4.221225,4.074024,1.625529,9.019595,2.449467,14.699715,2.449467,4.19742,0,7.841014-.476096,10.828761-1.414686,3.03147-.951707,5.812261-2.884755,8.267557-5.74619,2.472786-2.882811,3.727154-6.45159,3.727154-10.606745,0-2.238138-.294402-4.305271-.875434-6.143585Z"></path><path class="cls-1" d="M357.412398,93.645099c0,1.15259.934217,2.08699,2.086808,2.08699h.445976c.178293.028845.351728.046456.505731.046456h4.772622c.226632,0,.438446-.018036.641273-.046456h.69702c1.15259,0,2.086929-.9344,2.086929-2.08699V2.08699c0-1.15259-.934339-2.08699-2.086929-2.08699h-7.062621c-1.15259,0-2.086808.9344-2.086808,2.08699v38.839982c-1.801879-1.844569-3.780957-3.379069-5.921812-4.54095-2.716664-1.472498-6.367059-2.219192-10.851108-2.219192-7.835184,0-13.875777,3.20199-17.953687,9.516096-4.033216,6.243662-6.078486,13.569229-6.078486,21.77266s2.045271,15.528997,6.078486,21.773145c4.07791,6.314105,10.118503,9.51561,17.953687,9.51561,4.485021,0,8.135416-.746208,10.851108-2.218706,2.139518-1.160606,4.11884-2.694316,5.921812-4.539797v3.659261ZM353.907018,84.335231c-2.65448,2.673426-6.03865,4.028843-10.056319,4.028843-5.736474,0-9.683215-2.03604-12.064668-6.224716-2.399914-4.220739-3.61736-9.834303-3.61736-16.683773,0-6.848985,1.217446-12.462548,3.61736-16.683773,2.382425-4.188676,6.328194-6.224716,12.064668-6.224716,4.01767,0,7.40184,1.355417,10.056319,4.028843,1.733258,1.745646,2.898115,4.133961,3.50538,7.109866v23.53956c-.607266,2.975905-1.772123,5.36422-3.50538,7.109866Z"></path></g></g><g id="arriba"><path class="cls-1" d="M70.160118,77.323287h-31.765666c-9.664798,0-17.52762-7.862822-17.52762-17.52762V17.715651C20.866832,8.049735,28.729653.186019,38.394451.186019h31.765666c9.664798,0,17.527843,7.863716,17.527843,17.529632v42.080016c0,9.664798-7.863046,17.52762-17.527843,17.52762ZM38.394451,10.502381c-3.976242,0-7.211257,3.23591-7.211257,7.21327v42.080016c0,3.976242,3.235015,7.211257,7.211257,7.211257h31.765666c3.976466,0,7.211481-3.235015,7.211481-7.211257V17.715651c0-3.97736-3.235015-7.21327-7.211481-7.21327h-31.765666Z"></path></g><g id="abajo"><path class="cls-1" d="M49.293286,98.190118h-31.765666c-9.664798,0-17.52762-7.862822-17.52762-17.52762v-42.080016c0-9.665916,7.862822-17.529632,17.52762-17.529632h31.765666c9.664798,0,17.52762,7.863716,17.52762,17.529632v42.080016c0,9.664798-7.862822,17.52762-17.52762,17.52762ZM17.52762,31.369212c-3.976242,0-7.211257,3.23591-7.211257,7.21327v42.080016c0,3.976242,3.235015,7.211257,7.211257,7.211257h31.765666c3.976242,0,7.211257-3.235015,7.211257-7.211257v-42.080016c0-3.97736-3.235015-7.21327-7.211257-7.21327h-31.765666Z"></path></g><g id="verde"><path class="cls-2" d="M49.293286,98.190118h-31.765666c-9.664798,0-17.52762-7.862822-17.52762-17.52762v-42.080016c0-9.665916,7.862822-17.529632,17.52762-17.529632h31.765666c9.664798,0,17.52762,7.863716,17.52762,17.529632v42.080016c0,9.664798-7.862822,17.52762-17.52762,17.52762ZM17.52762,31.369212c-3.976242,0-7.211257,3.23591-7.211257,7.21327v42.080016c0,3.976242,3.235015,7.211257,7.211257,7.211257h31.765666c3.976242,0,7.211257-3.235015,7.211257-7.211257v-42.080016c0-3.97736-3.235015-7.21327-7.211257-7.21327h-31.765666Z"></path></g></svg>