<?xml version="1.0" encoding="UTF-8"?>
<svg id="Capa_2" data-name="Capa 2" xmlns="http://www.w3.org/2000/svg" viewBox="0 0 394.012086 393.19285">
  <defs>
    <style>
      .cls-1 {
        fill: #42a8df;
      }
    </style>
  </defs>
  <g id="Capa_1-2" data-name="Capa 1">
    <path class="cls-1" d="M182.994314.353897c166.617958-9.551302,271.503562,176.256942,172.792508,312.116815-85.377181,117.507944-265.279231,104.289421-333.073256-23.791197C-43.328136,163.909494,42.077435,8.431896,182.994314.353897ZM183.596723,27.173247c-27.059856,6.990527-45.109801,32.584024-56.42387,56.659203.257347.543661.764494.579298,1.245615.766867,2.98976,1.165581,10.180771,2.125374,13.718877,2.759693,13.642536,2.445862,27.585486,3.975534,41.459378,4.233003V27.173247ZM210.063348,27.173247v64.418766c19.039373-.379634,37.853153-3.656987,56.4287-7.495576-11.481817-24.0073-29.379251-49.618942-56.4287-56.92319ZM130.663268,35.168059c-19.008217,7.303253-36.620786,18.500985-51.434423,32.448809l24.940843,9.466753c6.360291-15.208749,15.759099-29.372413,26.49358-41.915562ZM313.431802,67.116816c-14.274094-13.73406-31.974663-24.643294-50.435015-31.94874,10.538005,12.700744,19.59381,26.681632,26.446883,41.735384l23.988132-9.786643ZM370.860577,183.476143c-2.62214-36.13309-16.803304-71.351444-40.264233-98.807393-10.475701,5.285787-20.855819,10.950861-32.146127,14.41903,9.374233,27.12473,14.043191,55.70462,15.482148,84.388363h56.928212ZM22.300124,183.476143h57.427582c.837249-28.531331,6.006863-56.886382,14.982783-83.888987-11.231972-3.51961-21.910823-8.686486-32.139124-14.435613-20.460797,23.652131-34.213562,54.619179-38.690115,85.673674-.606205,4.205334-.846264,8.472529-1.581127,12.650926ZM288.963852,183.476143c-.978881-26.108501-5.284063-52.159896-13.489982-76.906922-21.268096,5.976634-43.347371,8.723058-65.410521,9.991305v66.915617h78.900504ZM183.596723,116.560526c-22.244876-.855451-44.356316-4.011771-65.886751-9.467462-3.654401,11.583656-6.712915,23.35823-8.861556,35.342266-2.434061,13.575968-3.743101,27.277185-4.651567,41.040813h79.399874v-66.915617ZM79.727706,209.942768H22.300124c.833281,4.16414.966977,8.447793,1.580789,12.651264,4.52957,31.019131,17.955842,60.501551,37.61275,84.702335,10.179083-6.621949,21.644173-10.721277,32.647503-15.691641-8.776961-26.264182-13.529814-53.925229-14.41346-81.661959ZM183.596723,209.942768h-79.399874c1.571744,25.11028,4.83806,50.348326,12.962806,74.191606.528401.385395,1.064119.174734,1.629609.113382,5.950807-.645625,14.332777-3.560875,20.770423-4.735285,14.508154-2.6467,29.281313-4.214331,44.037035-4.651567v-64.918136ZM288.963852,209.942768h-78.900504v64.918136c22.452824.40886,44.573813,4.530006,66.366836,9.443348,7.470713-24.037985,11.749364-49.12654,12.533668-74.361484ZM370.860577,209.942768h-56.928212c-1.344779,27.701918-5.907316,55.215715-14.432935,81.56882l32.170907,15.300966c.865313-.019849,1.217771-.733835,1.727212-1.253763,3.487056-3.558837,8.428905-11.351679,11.203811-15.759057,15.019583-23.855575,24.233514-51.630954,26.259217-79.856966ZM183.596723,299.330048c-19.313572,1.273503-38.758668,3.113325-57.44277,8.279305,11.254559,25.181607,29.598122,51.29119,57.44277,59.135682v-67.414987ZM210.063348,299.330048v67.414987c27.869742-8.080599,46.023685-34.244311,57.427387-59.420113-18.876694-4.350899-38.071992-6.810241-57.427387-7.994874ZM103.176778,314.317312c-8.418806,2.425543-16.266713,6.420305-24.25402,9.938134-.471961.207865-.873745-.29187-.688657.785123,15.33622,13.995142,32.991395,25.690989,52.429182,33.21027-11.273251-13.144135-20.65123-28.013037-27.486504-43.933526ZM263.496048,357.751356c19.040986-7.249537,36.609251-18.759103,51.42557-32.703835-7.71725-4.39075-16.054635-7.751996-24.478884-10.52149-7.132895,15.504389-16.206335,29.986313-26.946686,43.225324Z"/>
  </g>
</svg>