<?xml version="1.0" encoding="UTF-8"?>
<svg id="Capa_2" data-name="Capa 2" xmlns="http://www.w3.org/2000/svg" viewBox="0 0 104.67 77.86">
  <defs>
    <style>
      .cls-1 {
        fill: #fff;
      }
    </style>
  </defs>
  <g id="Capa_1-2" data-name="Capa 1">
    <g>
      <path class="cls-1" d="M21.62,17.79c0,.13-.01.26-.02.39-.01.37.01-.17.03-.21-.09.16-.09.43-.15.62-.03.11-.11.24-.13.36,0-.04.25-.5.07-.2-.12.22-.24.43-.38.64-.24.36.3-.3.09-.12-.08.06-.14.16-.21.23-.06.06-.12.12-.18.17-.17.16-.41.22.08-.04-.18.09-.34.24-.52.34-.07.04-.15.08-.22.12-.36.21.53-.16.02,0-.2.06-.4.13-.61.17-.25.05-.32-.06.15,0-.1-.01-.22.02-.33.02-.22,0-.44,0-.66-.02-.31-.02.6.12.15.02-.12-.03-.25-.05-.37-.09s-.24-.08-.36-.12c-.22-.07-.09-.15.19.08-.14-.12-.38-.19-.55-.3-.09-.05-.17-.12-.26-.17-.25-.15.43.39.12.08-.15-.15-.34-.41-.52-.53.28.19.25.36.13.16-.07-.1-.14-.2-.2-.31-.04-.07-.08-.14-.12-.22-.12-.22-.08-.43.02.08-.04-.2-.14-.4-.19-.6-.02-.08-.04-.17-.06-.25-.1-.43.04.58,0,.02-.01-.2-.02-.4,0-.59.01-.21.14-.52-.02.08.02-.08.03-.17.05-.25.05-.21.11-.41.18-.61.14-.44-.25.47-.03.08.06-.11.11-.22.18-.33.05-.09.11-.17.17-.26.15-.23.24-.11-.09.11.15-.1.29-.32.42-.45.06-.05.38-.28.05-.06s.02,0,.07-.04c.19-.13.5-.21.65-.36-.03.03-.53.19-.19.08.12-.04.24-.08.36-.12s.74-.13.33-.09.02,0,.09,0c.11,0,.22,0,.33,0s.22.01.33.02c.45.02-.49-.11-.09,0,.25.06.49.13.73.2.42.13-.37-.22-.13-.06.12.08.26.13.38.21.07.04.14.09.21.13.07.05.14.09.2.14-.29-.23-.35-.27-.17-.12.15.14.29.29.44.44.32.32-.29-.45-.05-.07.07.1.14.2.2.31s.12.22.18.33c.2.36-.16-.5-.03-.08.08.24.14.48.2.73.05.21-.07.22-.02-.22-.02.16.03.36.03.52.02,1.18,1.02,2.3,2.25,2.25s2.27-.99,2.25-2.25c-.04-3-1.9-5.55-4.69-6.59-2.59-.97-5.81-.11-7.57,2.02-1.89,2.29-2.3,5.53-.74,8.14s4.52,3.8,7.45,3.27c3.22-.58,5.5-3.64,5.54-6.83.02-1.18-1.05-2.3-2.25-2.25s-2.23.99-2.25,2.25Z"/>
      <path class="cls-1" d="M9.35,25.94h-2.37c-.29,0-.59.02-.89,0-.31-.02-.75-.2-1.02-.47-.41-.41-.47-.73-.48-1.41,0-.64,0-1.28,0-1.92v-8.51c0-.56-.02-.92.12-1.25.16-.37.58-.75.83-.86.43-.17.57-.13,1.06-.13h2.73c-.75-.75-1.5-1.5-2.25-2.25v19.05c0,2.9,4.5,2.9,4.5,0V9.14c0-1.22-1.03-2.25-2.25-2.25-2.59,0-5.19-.25-7.28,1.63C.15,10.23.09,12.54.09,14.89v6.85c0,2.01-.19,4.09.97,5.87s3.15,2.8,5.28,2.82c1,.01,2,0,3,0,2.9,0,2.9-4.5,0-4.5Z"/>
      <path class="cls-1" d="M55.79,15.8h-24.95c-3.86,0-3.87,6,0,6h24.95c3.86,0,3.87-6,0-6h0Z"/>
      <path class="cls-1" d="M51.7,1.03c-7.46,3.68-14.92,7.36-22.38,11.04-3.46,1.71-.43,6.88,3.03,5.18,7.46-3.68,14.92-7.36,22.38-11.04,3.46-1.71.43-6.88-3.03-5.18h0Z"/>
      <path class="cls-1" d="M54.86,31.54c-7.5-3.59-15-7.18-22.5-10.77-3.47-1.66-6.51,3.51-3.03,5.18,7.5,3.59,15,7.18,22.5,10.77,3.47,1.66,6.51-3.51,3.03-5.18h0Z"/>
      <path class="cls-1" d="M97.54,52.72h-1.43l2.25,2.25v-13.96c0-8.23,0-16.46,0-24.69V7.82c0-.63.02-1.25,0-1.88-.07-2.23-1.47-4.18-3.77-4.51-1.41-.2-2.91-.06-4.34-.06h-4.56c-3,0-6.01-.1-9,0-2.79.09-4.64,2.12-4.67,4.87-.02,1.68-.07,3.38,0,5.06.11,2.56,2.05,3.55,4.04,4.64l5.09,2.77,1.26.69-1.11-1.94v37.52l2.25-2.25H29.96l2.25,2.25v-22.2c0-8.45.06-16.91,0-25.36-.02-2.68-1.26-5.21-3.68-6.52C26.45-.24,23.99.03,21.7.03S16.96.02,14.58.03c-3.64.02-6.88,2.32-7.4,6.08-.33,2.4-.09,4.96-.09,7.37v15.06c0,8.64-.26,17.32,0,25.95,0,.16,0,.32,0,.48l2.25-2.25c-1.47,0-3.03-.13-4.44.37-2.39.84-4.25,2.89-4.69,5.41-.41,2.39-.13,4.99-.13,7.4,0,2.56-.4,5.59.72,7.97,1.22,2.6,3.88,3.95,6.66,3.97,7.34.05,14.67,0,22.01,0h65.73c.73,0,1.46.02,2.19,0,3.67-.08,6.76-2.65,7.15-6.37.24-2.31.05-4.72.05-7.04,0-2.62.43-5.8-.94-8.16-1.29-2.21-3.59-3.45-6.12-3.54-2.9-.1-2.89,4.4,0,4.5s2.55,2.9,2.55,4.91v7.99c0,1.71-.71,3.17-2.65,3.22-.61.02-1.22,0-1.82,0H9.39c-2.13,0-4.77.2-4.8-2.8-.02-2.51,0-5.02,0-7.53,0-1.81-.54-4.65,1.51-5.57.94-.42,2.25-.21,3.24-.21,1.22,0,2.25-1.03,2.25-2.25V7.99c0-1.05-.02-2.09.88-2.85,1.25-1.06,3.74-.61,5.24-.61,2.32,0,4.63,0,6.95,0,1.66,0,3,.84,3.04,2.65.19,7.57,0,15.16,0,22.73,0,8.2-.15,16.41,0,24.61,0,.15,0,.3,0,.45,0,1.22,1.03,2.25,2.25,2.25h53.58c1.22,0,2.25-1.03,2.25-2.25V17.46c0-.77-.42-1.57-1.11-1.94-2.43-1.32-4.85-2.66-7.29-3.97-.17-.09-1.2-.87-.87-.18-.05-.1,0-.37,0-.48.03-.95,0-1.91,0-2.87,0-.66.03-1.33,0-1.99,0-.23.16-.23-.07-.1.11-.06.19-.08.32-.06,1.53.18,3.19,0,4.73,0h10.72c.48,0,1.1.11,1.57,0,.34-.08.09.05.07-.1.01.13,0,.27,0,.4-.05.67,0,1.37,0,2.04v46.76c0,1.22,1.03,2.25,2.25,2.25h1.43c2.9,0,2.9-4.5,0-4.5Z"/>
    </g>
  </g>
</svg>