<?xml version="1.0" encoding="UTF-8"?>
<svg id="Capa_2" data-name="Capa 2" xmlns="http://www.w3.org/2000/svg" viewBox="0 0 104.5 104.43">
  <defs>
    <style>
      .cls-1 {
        fill: #00b0ff;
      }
    </style>
  </defs>
  <g id="Capa_1-2" data-name="Capa 1">
    <g>
      <path class="cls-1" d="M100,52.21c-.03,10-3.15,19.72-8.96,27.86-5.49,7.7-13.43,13.75-22.33,16.98-9.47,3.44-19.89,3.84-29.59,1.08s-17.65-8.19-23.83-15.66C2.52,67.03,1.07,44.42,11.47,27.36S42.15,1.45,61.6,5.37c19.48,3.93,34.72,19.89,37.85,39.5.39,2.43.54,4.89.55,7.34,0,2.9,4.51,2.9,4.5,0-.04-10.79-3.36-21.49-9.67-30.27s-14.9-15.28-24.92-18.91c-20.46-7.43-44.25-.86-58,15.99C5.08,27.38.96,37.6.15,48.37c-.82,10.77,1.82,21.75,7.44,30.97,5.43,8.91,13.56,16.19,23.08,20.46,10.06,4.52,21.32,5.78,32.14,3.6,20.97-4.23,37.82-21.82,41.04-42.98.41-2.72.65-5.45.65-8.2,0-2.9-4.49-2.9-4.5,0Z"/>
      <g>
        <path class="cls-1" d="M44.46,55.55h-15.95c-2.58,0-4.67,2.12-4.67,4.74v15.6c0,2.61,2.09,4.73,4.67,4.73h15.95c2.58,0,4.67-2.12,4.67-4.73v-15.6c0-2.62-2.09-4.74-4.67-4.74M30.44,61.69h12.65v12.26h-12.65v-12.26Z"/>
        <path class="cls-1" d="M44.46,23.8h-15.95c-2.58,0-4.67,2.12-4.67,4.74v15.6c0,2.62,2.09,4.73,4.67,4.73h15.95c2.58,0,4.67-2.12,4.67-4.73v-15.6c0-2.62-2.09-4.74-4.67-4.74M30.44,29.93h12.65v12.26h-12.65v-12.26Z"/>
        <path class="cls-1" d="M75.96,23.8h-16.07c-2.6,0-4.71,2.12-4.71,4.74v15.6c0,2.62,2.11,4.73,4.71,4.73h16.07c2.6,0,4.71-2.12,4.71-4.73v-15.6c0-2.62-2.11-4.74-4.71-4.74M61.83,29.93h12.74v12.26h-12.74v-12.26Z"/>
        <rect class="cls-1" x="55.35" y="61.55" width="18.66" height="6.31"/>
        <rect class="cls-1" x="74.01" y="55.24" width="6.65" height="6.31"/>
        <rect class="cls-1" x="55.37" y="55.24" width="6.65" height="9.65"/>
        <rect class="cls-1" x="74.01" y="67.86" width="6.65" height="6.31"/>
        <rect class="cls-1" x="55.35" y="74.17" width="6.23" height="6.46"/>
        <rect class="cls-1" x="67.78" y="74.17" width="6.23" height="6.46"/>
        <rect class="cls-1" x="61.58" y="65.89" width="6.23" height="8.28"/>
      </g>
    </g>
  </g>
</svg>