<?xml version="1.0" encoding="UTF-8"?>
<svg id="Capa_2" data-name="Capa 2" xmlns="http://www.w3.org/2000/svg" viewBox="0 0 65.93 104.49">
  <defs>
    <style>
      .cls-1 {
        fill: #00b0ff;
      }
    </style>
  </defs>
  <g id="Capa_1-2" data-name="Capa 1">
    <g>
      <path class="cls-1" d="M62.45,83.25c-1.92-4.64-3.84-9.29-5.76-13.93-3.06-7.41-6.12-14.82-9.19-22.22-.71-1.71-1.41-3.41-2.12-5.12l-.58,2.19c3.76-3.96,5.37-9.38,4.3-14.74-.91-4.6-4.03-8.74-8.15-10.97-8.9-4.8-20.18-.24-23.32,9.34-1.89,5.77-.21,12.15,3.97,16.47l-.58-2.19c-2.31,5.56-4.62,11.12-6.93,16.69-3.13,7.55-6.27,15.11-9.4,22.66-.25.61-.52,1.21-.75,1.82-1.45,3.76.39,8.21,4.06,9.86l-1.11-1.94h0c0,1.07.71,1.81,1.65,2.17,3.44,1.31,7.42-.07,9.39-3.16.47-.75.78-1.64,1.12-2.46,1.16-2.8,2.33-5.61,3.49-8.41,3.43-8.26,6.86-16.53,10.29-24.79.86-2.06,1.71-4.12,2.57-6.19h-4.34c2.71,6.54,5.41,13.09,8.12,19.63,2.86,6.91,5.69,13.83,8.57,20.73,1.54,3.69,5.31,5.91,9.3,4.92.11-.03.72-.29.34-.16-.4.14.84-.26,1-.33.51-.23.95-.5,1.4-.83.88-.66,1.63-1.47,2.16-2.43,1.12-2,1.32-4.45.51-6.59-.43-1.14-1.52-1.91-2.77-1.57-1.09.3-2,1.63-1.57,2.77.78,2.06,0,3.87-2,4.77l1.14-.31c-.67,0-1.27.38-1.94.42-.57.04-1.13-.08-1.64-.32s-.98-.63-1.3-1.09c-.06-.09-.51-.93-.26-.4,0-.01-.01-.03-.02-.04-.26-.56-.47-1.14-.71-1.71l-3.68-8.9c-3.3-7.97-6.59-15.95-9.89-23.92-.81-1.95-1.61-3.9-2.42-5.85-.88-2.12-3.46-2.12-4.34,0-2.15,5.17-4.29,10.35-6.44,15.52-3.07,7.4-6.14,14.8-9.21,22.19-.35.84-.68,1.69-1.04,2.51-.03.06-.05.12-.07.17.13-.27.08-.14-.08.09-.21.3-.37.58-.65.84-1.11,1-2.48,1.06-3.83.55l1.65,2.17h0c0-.73-.41-1.63-1.11-1.94-2.04-.92-2.77-2.77-1.96-4.85.24-.6.5-1.2.75-1.8,1.27-3.05,2.53-6.1,3.8-9.14,3.35-8.08,6.7-16.15,10.06-24.23.82-1.97,1.64-3.95,2.46-5.92.3-.72-.07-1.66-.58-2.19-5.39-5.58-4.11-14.88,2.71-18.66,6.22-3.45,14.49-.35,16.8,6.41,1.45,4.26.43,8.89-2.66,12.15-.5.53-.88,1.46-.58,2.19,1.92,4.64,3.84,9.29,5.76,13.93,3.06,7.41,6.12,14.82,9.19,22.22.71,1.71,1.41,3.41,2.12,5.12.46,1.12,1.49,1.92,2.77,1.57,1.06-.29,2.04-1.64,1.57-2.77Z"/>
      <path class="cls-1" d="M.7,63.7c6.27,5.88,14.24,10.09,22.65,11.85,11.57,2.43,23.66.27,33.79-5.79,2.89-1.73,5.64-3.76,8.1-6.06,2.12-1.98-1.07-5.16-3.18-3.18s-3.48,3.01-5.86,4.54c-3.82,2.45-7.95,4.35-12.33,5.54-10.8,2.95-22.39,1.31-32.06-4.27-3.15-1.82-5.38-3.44-7.91-5.82-2.11-1.98-5.3,1.2-3.18,3.18h0Z"/>
      <path class="cls-1" d="M55.61,92.21c1.49,3.54,2.98,7.07,4.47,10.61.24.57.48,1.02,1.03,1.34.48.28,1.19.4,1.73.23,1.04-.34,2.06-1.61,1.57-2.77-1.49-3.54-2.98-7.07-4.47-10.61-.24-.57-.48-1.02-1.03-1.34-.48-.28-1.19-.4-1.73-.23-1.04.34-2.06,1.61-1.57,2.77h0Z"/>
      <path class="cls-1" d="M6.89,90.99c-1.45,3.55-2.89,7.11-4.34,10.66-.45,1.09.48,2.52,1.57,2.77,1.31.3,2.29-.4,2.77-1.57,1.45-3.55,2.89-7.11,4.34-10.66.45-1.09-.48-2.52-1.57-2.77-1.31-.3-2.29.4-2.77,1.57h0Z"/>
      <path class="cls-1" d="M35.44,17.86V2.25c0-1.22-1.03-2.25-2.25-2.25s-2.25,1.03-2.25,2.25v15.61c0,1.22,1.03,2.25,2.25,2.25s2.25-1.03,2.25-2.25h0Z"/>
    </g>
  </g>
</svg>