<?xml version="1.0" encoding="UTF-8"?>
<svg id="Capa_2" data-name="Capa 2" xmlns="http://www.w3.org/2000/svg" viewBox="0 0 109.34 109.27">
  <defs>
    <style>
      .cls-1 {
        fill: #fff;
      }
    </style>
  </defs>
  <g id="Capa_7" data-name="Capa 7">
    <path class="cls-1" d="M80.48,22.28l-5.39,2.89c-1.02.54-2.18.98-3.08,1.89-1.22,1.24-1.71,3.07-1.26,4.75.39,1.46,1.42,2.87,2.13,4.19,2,3.74,3.99,7.47,5.99,11.21.98,1.83,1.96,3.66,2.94,5.5.69,1.29,1.38,2.43,2.81,3.01,1.99.81,3.57-.09,5.29-1.01l6.21-3.33c2.55-1.37.28-5.25-2.27-3.89l-5.57,2.98c-.49.27-1.5,1-1.92,1.07-.3.05,0,.02-.05.02.12.01-.04-.02-.11-.18-.79-1.83-1.91-3.58-2.85-5.34-1.06-1.98-2.11-3.96-3.17-5.94s-2.04-3.81-3.05-5.72c-.51-.95-1.01-1.91-1.53-2.86-.22-.4-.55-.77-.52-1.12,0-.03.38-.32.4-.37.11-.28-.09.02-.15.04.55-.26,1.08-.52,1.62-.8l5.82-3.12c2.55-1.37.28-5.25-2.27-3.89h0Z"/>
    <path class="cls-1" d="M72.64,31.5c-2.4.87-4.92,1.51-7.46,1.76-2.87.28-5.96.16-8.53-.3-1.19-.21-2.43.32-2.77,1.57-.3,1.09.37,2.55,1.57,2.77,6.15,1.1,12.5.67,18.39-1.46,1.14-.41,1.91-1.53,1.57-2.77-.3-1.1-1.62-1.99-2.77-1.57h0Z"/>
    <path class="cls-1" d="M49.58,63.8c2.08-6.86,4.16-13.73,6.24-20.59,1.03-3.39,2.06-6.78,3.08-10.18.48-1.58.91-3.17,1.43-4.73.56-1.66.98-3.1.65-4.88-.44-2.4-2.21-4.32-4.52-5.06-2.97-.95-5.63.48-7.33,2.9-1.3,1.84-2.07,4.06-2.81,6.18-2.26,6.41-4.09,12.98-5.94,19.52-2.04,7.21-4,14.44-5.92,21.68-.69,2.6-1.37,5.2-2.05,7.8-.15.58-.34,1.15-.45,1.74-.2,1.03.19,2.12.4,3.13s.43,2.09.65,3.14c.42,2.01.83,4.02,1.25,6.04s3.06,1.94,4.11.54c1.86-2.49,3.72-4.98,5.59-7.47.45-.6.97-1.17,1.23-1.88.27-.75.47-1.54.71-2.3l1.41-4.59c.85-2.77-3.49-3.96-4.34-1.2l-1.27,4.13c-.22.72-.37,1.62-.71,2.3-.29.58-.82,1.13-1.2,1.65-1.77,2.36-3.53,4.72-5.3,7.09l4.11.54c-.77-3.7-1.53-7.41-2.3-11.11v1.2c2.59-10.03,5.28-20.05,8.08-30.02,1.72-6.12,3.46-12.24,5.45-18.28.35-1.08.72-2.15,1.1-3.21.16-.44.32-.87.49-1.3.07-.18.14-.36.22-.54.13-.34-.08.19-.09.21.05-.12.1-.24.15-.35.44-.94.9-1.95,1.63-2.7.55-.57,1.16-.77,1.93-.47.7.27.7.25,1.07.91.62,1.12.1,2.16-.27,3.25-.56,1.63-1,3.32-1.51,4.97-1.03,3.39-2.06,6.78-3.08,10.18-2.08,6.86-4.16,13.73-6.24,20.59-.84,2.78,3.5,3.96,4.34,1.2h0Z"/>
    <path class="cls-1" d="M43.61,78.91c-2.96-.77-5.92-1.53-8.89-2.3-1.14-.29-2.5.37-2.77,1.57s.35,2.45,1.57,2.77c2.96.77,5.92,1.53,8.89,2.3,1.14.29,2.5-.37,2.77-1.57s-.35-2.45-1.57-2.77h0Z"/>
    <path class="cls-1" d="M57.93,28.68c-2.78-.9-5.57-1.79-8.35-2.69-1.12-.36-2.51.42-2.77,1.57-.28,1.23.37,2.38,1.57,2.77,2.78.9,5.57,1.79,8.35,2.69,1.12.36,2.51-.42,2.77-1.57.28-1.23-.37-2.38-1.57-2.77h0Z"/>
    <path class="cls-1" d="M81.52,49.9c-3.45,4.61-7.94,9.34-13.21,11.85-2.36,1.12-4.78,2.11-7.11,3.3-3.22,1.63-6.31,3.49-9.42,5.32-.91.53-2.18,1.27-2.92,1.58-.04.02-.69.24-.97.32-.2.06-.68.12-.22.07-.21.02-.41.02-.62.03-.16,0-.72-.11-.2,0-.18-.04-.36-.08-.54-.13-.1-.03-.19-.07-.29-.1-.46-.14.28.16-.11-.05-.84-.46-1.71-.85-2.11-1.78-.44-1.02.11-2.19.72-3.02.53-.72,1.14-1.06,1.81-1.32,3.04-1.17,5.9-2.3,8.55-4.25,3.16-2.32,5.27-5.74,3.42-9.62-1.04-2.19-3.08-3.96-5.14-5.19-2.49-1.48-4.76,2.4-2.27,3.89.75.45,1.09.71,1.61,1.17.82.72,1.72,1.62,1.97,2.68.61,2.48-3.83,4.61-5.61,5.52-2.48,1.27-5.47,1.59-7.4,3.77-2.19,2.47-3.23,6.26-1.24,9.16,1.23,1.8,3.34,3.22,5.51,3.63,2.28.42,4.37-.32,6.38-1.37,2.97-1.55,5.77-3.42,8.71-5.02s5.7-2.86,8.62-4.16c6.51-2.91,11.76-8.36,15.97-13.99.73-.97.16-2.51-.81-3.08-1.15-.67-2.35-.17-3.08.81h0Z"/>
    <path class="cls-1" d="M45.58,32.97c-5.54,1.17-9.28,4.74-12.4,9.28-2.69,3.93-4.85,8.43-5.99,13.08-.58,2.35-.89,4.78-1.02,7.2-.16,3-.21,6.43.78,9.31.89,2.58,3.19,4.08,5.94,3.1s4.88-3.51,5.32-6.44c.24-1.58.13-3.16.11-4.75-.01-.94,0-1.89.12-2.83-.05.38.02-.13.03-.22.05-.29.1-.59.17-.88.68-3.12,2.3-5.92,4.32-8.37.77-.94.92-2.27,0-3.18-.8-.8-2.4-.94-3.18,0-3.32,4.02-5.7,8.62-5.94,13.9-.09,2.07.54,4.7-.34,6.65-.18.4-.46.74-.78,1.04-.36.34-.99.52-1.3.84-.1.11-.18.15-.16.09-.04.17.19.05.25.26-.04-.16-.22-.36-.28-.51.08.18-.19-.76-.23-.98-.12-.57-.19-1.14-.24-1.72-.15-1.63-.18-3.27-.11-4.9.09-2.05.34-4.08.8-6.08.81-3.5,2.27-6.84,4.09-9.92,2.77-4.73,5.81-8.47,11.23-9.61,2.83-.6,1.63-4.94-1.2-4.34h0Z"/>
    <path class="cls-1" d="M61.3,68.29c.21.19.39.4.58.6.16.17-.16-.22-.16-.21.02.06.11.15.14.2.08.12.15.24.22.37.03.05.21.33.19.38-.01.02-.18-.48-.11-.26.02.06.04.11.06.17.09.26.15.53.21.8.08.37-.05-.6-.02-.08,0,.12.01.23.01.35,0,.13-.01.27-.02.4-.02.35.1-.56,0-.09-.01.06-.23.7-.21.71,0,0,.21-.46.11-.27-.04.07-.07.14-.1.2-.06.12-.13.23-.21.34-.02.02-.13.19-.13.19-.02,0,.32-.38.17-.23-.08.09-.15.18-.24.26-.1.1-.2.19-.3.29-.25.24.42-.29.03-.02-.12.08-.53.4-.69.38-.01,0,.57-.2.2-.09-.06.02-.12.04-.18.05-.04.01-.4.13-.42.1-.01-.02.63-.05.23-.04-.06,0-.13,0-.19,0-.12,0-.23,0-.35,0-.49-.02.46.11.12.02-.12-.03-.24-.05-.36-.09-.09-.03-.28-.06-.35-.12-.04-.04.5.25.29.12-.04-.03-.1-.05-.14-.07-.11-.06-.22-.12-.33-.19-.05-.03-.09-.06-.14-.09-.26-.16.17.14.19.15-.23-.08-.48-.44-.63-.62-.23-.26.31.44.04.05-.09-.13-.17-.26-.24-.39-.02-.03-.2-.35-.18-.37.01,0,.21.57.09.21-.03-.08-.05-.15-.08-.23-.1-.31-.17-.64-.21-.96-.07-.52-.61-1.1-1.03-1.34-.48-.28-1.19-.4-1.73-.23s-1.07.51-1.34,1.03c-.3.57-.31,1.1-.23,1.73.44,3.19,3.37,6.03,6.68,5.9,3.58-.13,6.58-3.38,6.37-6.98-.11-1.98-.98-3.86-2.45-5.21-.87-.79-2.33-.92-3.18,0-.79.86-.93,2.33,0,3.18h0Z"/>
    <path class="cls-1" d="M46.19,75.05c.75,3.3,3.58,6.65,7.24,6.49,1.65-.07,3.28-.82,4.38-2.06s1.61-2.74,1.62-4.34c.02-2.23-.97-4.28-2.4-5.94-.77-.9-2.4-.85-3.18,0-.88.95-.82,2.23,0,3.18-.01-.01.18.22.18.22-.02,0-.33-.46-.1-.12.09.13.18.26.27.4.18.28.3.59.47.87-.32-.55-.06-.15,0,.05.05.14.09.28.13.42s.07.28.1.41c.01.06.04.17.04.24,0-.12-.06-.57-.03-.19.02.29,0,.57,0,.85-.01.36.13-.59.01-.11-.03.14-.06.28-.1.42-.04.12-.09.23-.12.35.16-.62.13-.28,0-.06-.06.11-.13.21-.19.31-.28.45.36-.42.21-.26-.08.08-.15.17-.23.25-.07.07-.14.14-.21.2-.03.03-.06.05-.09.08-.28.26.19-.17.21-.16,0,0-.55.35-.61.38-.05.02-.14.09-.2.1,0,0,.57-.19.22-.1-.16.04-.31.09-.47.12-.38.09.22-.03.22-.03-.03.02-.2.01-.23.01-.11,0-.23,0-.34-.01-.44-.02.52.11.16.02-.15-.04-.29-.07-.43-.11-.05-.02-.09-.03-.14-.05-.33-.1.28.11.25.11-.08.01-.25-.12-.32-.16-.11-.06-.21-.12-.32-.19-.06-.04-.12-.08-.18-.12-.3-.2.35.3.15.12-.24-.22-.47-.42-.68-.67-.02-.02-.15-.17-.15-.18,0,0,.33.45.14.17-.1-.15-.2-.3-.3-.45s-.19-.32-.27-.49c-.03-.06-.05-.11-.08-.17-.12-.24.18.5.05.12s-.26-.76-.35-1.15c-.26-1.15-1.65-1.93-2.77-1.57-1.2.39-1.85,1.54-1.57,2.77h0Z"/>
    <path class="cls-1" d="M104.84,54.63c-.03,10.47-3.28,20.65-9.35,29.19s-14.22,14.58-23.65,17.98-20.73,3.98-30.83,1.13-18.6-8.58-25.12-16.44C2.49,70.32.88,46.67,11.69,28.74,22.53,10.76,44.12,1.21,64.72,5.46c9.94,2.05,19.07,7.09,26.11,14.39,7.14,7.41,11.82,16.92,13.43,27.07.4,2.54.56,5.13.57,7.7,0,2.9,4.51,2.9,4.5,0-.04-11.31-3.53-22.53-10.15-31.72-6.46-8.98-15.45-15.85-25.84-19.66C51.92-4.63,26.95,2.2,12.5,19.85,5.37,28.56,1.05,39.21.17,50.43s1.87,22.93,7.81,32.64,14.16,16.87,24.09,21.34c10.49,4.72,22.23,6.05,33.52,3.8,22-4.39,39.69-22.82,43.08-45.02.43-2.84.67-5.69.68-8.56s-4.49-2.9-4.5,0Z"/>
  </g>
</svg>