<?xml version="1.0" encoding="UTF-8"?>
<svg id="Capa_2" data-name="Capa 2" xmlns="http://www.w3.org/2000/svg" viewBox="0 0 20.46 24.38">
  <defs>
    <style>
      .cls-1 {
        fill: #00b0ff;
      }
    </style>
  </defs>
  <g id="Capa_6" data-name="Capa 6">
    <g>
      <path class="cls-1" d="M7.98,2.17v19.96c0,2.9,4.5,2.9,4.5,0V2.17c0-2.9-4.5-2.9-4.5,0h0Z"/>
      <path class="cls-1" d="M16.64,11.01c-2.67,3.18-5.33,6.35-8,9.53-.76.9-.95,2.31,0,3.18.83.77,2.37.96,3.18,0,2.67-3.18,5.33-6.35,8-9.53.76-.9.95-2.31,0-3.18-.83-.77-2.37-.96-3.18,0h0Z"/>
      <path class="cls-1" d="M11.82,20.54c-2.67-3.18-5.33-6.35-8-9.53-.76-.91-2.41-.84-3.18,0-.88.96-.81,2.22,0,3.18,2.67,3.18,5.33,6.35,8,9.53.76.91,2.41.84,3.18,0,.88-.96.81-2.22,0-3.18h0Z"/>
    </g>
  </g>
</svg>