<?xml version="1.0" encoding="UTF-8"?>
<svg id="Capa_2" data-name="Capa 2" xmlns="http://www.w3.org/2000/svg" viewBox="0 0 90.99 102.25">
  <defs>
    <style>
      .cls-1 {
        fill: #00b0ff;
      }
    </style>
  </defs>
  <g id="Capa_1-2" data-name="Capa 1">
    <g>
      <path class="cls-1" d="M80.94,19.79c-.47-5.27-2.64-9.75-6.35-13.35C70.21,2.18,64.83-.27,57.99.02c-1.03.15-2.51-.03-4.02.31-4.08.93-7.65,2.67-10.75,5.48-2.84,2.58-4.93,5.59-6.09,9.19-1.09,3.32-1.41,6.68-1.07,10.21.55,5.73,2.31,11.01,5.22,15.93,4.15,7.06,9.73,12.9,16.28,17.89.75.58,1.25.48,1.83,0,2.12-1.74,4.33-3.39,6.28-5.29,3.42-3.32,6.46-6.97,9.03-10.99,4.49-7.04,6.99-14.53,6.24-22.97ZM58.52,32.95c-6.74-.01-11.26-5.32-10.97-11.15-.28-6.25,5.95-10.67,11.1-10.6,4.87.06,11.16,4.24,10.91,11.08-.21,5.61-4.44,10.67-11.04,10.67Z"/>
      <path class="cls-1" d="M.66,20.53c2.68,2.68,5.37,5.37,8.05,8.05,6.41,6.41,12.82,12.82,19.23,19.23,7.75,7.75,15.5,15.5,23.26,23.26,6.73,6.73,13.45,13.45,20.18,20.18,3.25,3.25,6.4,6.64,9.77,9.77.05.04.09.09.14.14,2.05,2.05,5.23-1.13,3.18-3.18-2.68-2.68-5.37-5.37-8.05-8.05-6.41-6.41-12.82-12.82-19.23-19.23-7.75-7.75-15.5-15.5-23.26-23.26-6.73-6.73-13.45-13.45-20.18-20.18-3.25-3.25-6.4-6.64-9.77-9.77-.05-.04-.09-.09-.14-.14-2.05-2.05-5.23,1.13-3.18,3.18h0Z"/>
      <path class="cls-1" d="M8.88,76.42c7.45-7.45,14.89-14.89,22.34-22.34,1.07-1.07,2.13-2.13,3.2-3.2,2.05-2.05-1.13-5.23-3.18-3.18-7.45,7.45-14.89,14.89-22.34,22.34-1.07,1.07-2.13,2.13-3.2,3.2-2.05,2.05,1.13,5.23,3.18,3.18h0Z"/>
      <path class="cls-1" d="M64.84,81.52c7.43-7.43,14.87-14.87,22.3-22.3,1.06-1.06,2.13-2.13,3.19-3.19,2.05-2.05-1.13-5.23-3.18-3.18-7.43,7.43-14.87,14.87-22.3,22.3-1.06,1.06-2.13,2.13-3.19,3.19-2.05,2.05,1.13,5.23,3.18,3.18h0Z"/>
      <path class="cls-1" d="M11.56,70.57c3.49,3.49,6.99,6.99,10.48,10.48,5.57,5.57,11.14,11.14,16.71,16.71l3.83,3.83c2.05,2.05,5.23-1.13,3.18-3.18-3.49-3.49-6.99-6.99-10.48-10.48-5.57-5.57-11.14-11.14-16.71-16.71l-3.83-3.83c-2.05-2.05-5.23,1.13-3.18,3.18h0Z"/>
    </g>
  </g>
</svg>