<?xml version="1.0" encoding="UTF-8"?>
<svg id="Capa_2" data-name="Capa 2" xmlns="http://www.w3.org/2000/svg" viewBox="0 0 104.5 104.43">
  <defs>
    <style>
      .cls-1 {
        fill: #fff;
      }
    </style>
  </defs>
  <g id="Capa_1-2" data-name="Capa 1">
    <g>
      <path class="cls-1" d="M100,52.21c-.03,10-3.15,19.72-8.96,27.86-5.49,7.7-13.43,13.75-22.33,16.98-9.47,3.44-19.89,3.84-29.59,1.08s-17.65-8.19-23.83-15.66C2.52,67.03,1.07,44.42,11.47,27.36,21.78,10.44,42.15,1.45,61.6,5.37c19.48,3.93,34.72,19.89,37.85,39.5.39,2.43.54,4.89.55,7.34,0,2.9,4.51,2.9,4.5,0-.04-10.79-3.36-21.49-9.67-30.27s-14.9-15.28-24.92-18.91c-20.46-7.43-44.25-.86-58,15.99C5.08,27.38.96,37.6.15,48.37c-.82,10.77,1.82,21.75,7.44,30.97,5.43,8.91,13.56,16.19,23.08,20.46,10.06,4.52,21.32,5.78,32.14,3.6,20.97-4.23,37.82-21.82,41.04-42.98.41-2.72.65-5.45.65-8.2,0-2.9-4.49-2.9-4.5,0Z"/>
      <path class="cls-1" d="M69.27,74.32c-2.97-2.09-5.11-5.24-7.3-8.08-2.9-3.76-5.77-7.55-8.7-11.29-2.57-3.27-5.13-6.62-8.03-9.6-1.66-1.71-3.64-3.17-6.1-3.33-1.13-.08-2.27.21-3.39.32-1.68.16-3.44.3-5.1-.09-5.62-1.3-8.9-7.74-6.48-13.02l-2.36.3c1.44,1.47,2.88,2.94,4.32,4.4.92.94,1.79,2.03,2.83,2.85,1.15.91,2.65,1.31,4.09.94,1.7-.44,2.81-1.92,4.03-3.09,1.12-1.09,2.59-2.09,3.05-3.64s.11-3.04-.85-4.25-2.21-2.07-3.3-3.05c-1.55-1.39-3.1-2.79-4.66-4.18l-.66,2.51c3.33-1.14,7.02-.87,9.99,1.11,3.12,2.09,4.57,5.27,4.72,8.91.07,1.75.32,3.5.73,5.21.26,1.11.48,2.37,1.07,3.36.81,1.38,2.19,2.52,3.36,3.57,8.01,7.22,17.01,13.24,25.18,20.25,2.19,1.88,3.88,4.8,3.42,7.8-.33,2.17-2.08,3.59-4.19,3.9s-3.89-.61-5.66-1.84c-1.59-1.11-3.09,1.49-1.51,2.59,1.81,1.26,3.62,2.23,5.87,2.3,1.86.07,3.82-.41,5.35-1.49,3.27-2.32,3.77-6.46,2.53-10.04-.96-2.78-2.83-4.67-5.05-6.47s-4.3-3.42-6.46-5.11c-5.12-4-10.29-7.95-15.24-12.16-1.64-1.4-3.31-2.81-4.74-4.44-.28-.31.01.05-.11-.13-.07-.1-.14-.19-.2-.3-.26-.47.08.41-.06-.16s-.35-1.17-.5-1.76c-.43-1.63-.71-3.28-.79-4.97-.09-2.05-.3-3.93-1.17-5.83-1.01-2.19-2.63-4.06-4.57-5.48-3.64-2.67-8.54-3.19-12.77-1.75-1,.34-1.55,1.71-.66,2.51,2.33,2.09,4.61,4.24,6.99,6.27.05.04.69.6.35.29.09.09.21.16.29.27.3.4.53.76.5,1.29-.06,1.09-1.65,2.05-2.37,2.75-.76.74-1.77,2.25-2.9,2.33-.48.04-.9-.12-1.27-.42-.12-.1-.61-.62-.31-.28-2.1-2.32-4.36-4.51-6.55-6.74-.62-.64-1.95-.58-2.36.3-2.26,4.92-1.22,10.53,2.67,14.29,2.33,2.25,5.35,3.44,8.58,3.47,1.6.02,3.19-.18,4.78-.38,1.39-.18,2.54-.01,3.74.79,1.45.97,2.63,2.46,3.77,3.77,1.49,1.71,2.92,3.48,4.34,5.25,3.15,3.95,6.2,7.97,9.28,11.98,2.73,3.56,5.33,7.4,9.04,10.02,1.58,1.11,3.08-1.49,1.51-2.59Z"/>
      <path class="cls-1" d="M56.62,44.75c1.04.7,2.09,1.4,3.13,2.09.54.36,1.38.22,1.82-.23,3.61-3.73,7.22-7.45,10.83-11.18.42-.44.85-.88,1.27-1.32.38-.39.81-1.04,1.27-1.32.88-.52,2.15-.33,2.98-.97s1.31-2.23,1.79-3.16c.6-1.18,1.2-2.35,1.81-3.53.31-.6.25-1.32-.23-1.82l-2.04-2.07c-.45-.46-1.26-.58-1.82-.23-1.08.68-2.17,1.35-3.25,2.03-.97.61-2.38,1.19-3.17,2.02s-.41,2.21-.93,3.16c-.27.48-.9.95-1.29,1.35-.48.49-.96.99-1.44,1.48-3.68,3.78-7.35,7.55-11.03,11.33-1.35,1.38.77,3.51,2.12,2.12,2.82-2.9,5.65-5.8,8.47-8.7,1.39-1.42,2.77-2.85,4.16-4.27.62-.64,1.49-1.29,1.82-2.14s.43-1.97.63-2.87l-.69.9c2.04-1.27,4.08-2.55,6.12-3.82l-1.82-.23,2.04,2.07-.23-1.82c-1.07,2.09-2.14,4.18-3.21,6.27l.9-.69c-.9.24-1.96.4-2.82.76-.8.34-1.34,1.09-1.94,1.7-1.38,1.42-2.76,2.85-4.14,4.27-2.76,2.85-5.52,5.7-8.28,8.55l1.82-.23c-1.04-.7-2.09-1.4-3.13-2.09-1.61-1.08-3.11,1.52-1.51,2.59Z"/>
      <path class="cls-1" d="M44.09,54.89c.59.48,1.03,1.27,1.5,1.88.61.79,1.22,1.58,1.83,2.37.49.63,1.23,1.32,1.51,2.08.3.82-.13,1.73-.53,2.43-1.53,2.69-3.46,5.21-5.36,7.65-1.53,1.97-3.06,3.94-4.69,5.81-1.18,1.36-2.44,2.66-3.79,3.85-.92.82-2.09,1.62-3.38,1.21s-2.47-1.41-3.52-2.17c-1.17-.85-2.33-1.9-2.73-3.35-.27-.99-.12-2.01.2-2.97.06-.17.12-.34.19-.51.13-.33-.14.32.01-.02.05-.1.09-.21.14-.31.27-.54.56-1.07.88-1.58.91-1.46,2-2.79,3.15-4.07,2.15-2.39,4.53-4.57,6.99-6.65,1.49-1.26,3-2.52,4.58-3.68.54-.4,2.6-2.14,3.34-1.76,1.71.88,3.23-1.71,1.51-2.59-3-1.54-6.4,1.74-8.57,3.46-3,2.38-5.92,4.89-8.59,7.63s-5.17,5.58-6.44,9.07c-.51,1.4-.66,2.95-.35,4.4.71,3.43,4.09,5.68,6.94,7.3,3.5,1.99,6.46.03,9.01-2.44s4.64-5.22,6.8-7.95c2.29-2.9,4.84-5.94,6.5-9.25,1.01-2.01,1.1-4.1-.29-5.94-.8-1.06-1.62-2.11-2.43-3.16-.71-.92-1.37-2.14-2.27-2.88-1.48-1.21-3.62.9-2.12,2.12Z"/>
      <path class="cls-1" d="M74.64,70.53c0,.12-.01.25-.03.37l.05-.4c-.02.14-.05.28-.09.42-.02.06-.04.11-.06.17-.05.17.17-.34.05-.13-.07.12-.14.24-.22.36-.13.2.21-.23.08-.11-.05.05-.09.1-.14.15-.04.04-.09.08-.13.12-.19.19.31-.2.08-.06-.11.07-.22.14-.33.2-.23.13.1-.02.13-.05-.03.03-.16.06-.2.07-.14.04-.28.07-.42.09l.4-.05c-.25.03-.49.03-.74,0l.4.05c-.14-.02-.28-.05-.42-.09-.06-.02-.11-.04-.17-.06-.17-.05.34.17.13.05-.12-.07-.24-.14-.36-.22-.2-.13.23.21.11.08-.05-.05-.1-.09-.15-.14-.04-.04-.08-.09-.12-.13-.19-.19.2.31.06.08-.07-.11-.14-.22-.2-.33-.13-.23.02.1.05.13-.03-.03-.06-.16-.07-.2-.04-.14-.07-.28-.09-.42l.05.4c-.03-.25-.03-.49,0-.74l-.05.4c.02-.14.05-.28.09-.42.02-.06.04-.11.06-.17.05-.17-.17.34-.05.13.07-.12.14-.24.22-.36.13-.2-.21.23-.08.11.05-.05.09-.1.14-.15.04-.04.09-.08.13-.12.19-.19-.31.2-.08.06.11-.07.22-.14.33-.2.23-.13-.1.02-.13.05.03-.03.16-.06.2-.07.14-.04.28-.07.42-.09l-.4.05c.25-.03.49-.03.74,0l-.4-.05c.14.02.28.05.42.09.06.02.11.04.17.06.17.05-.34-.17-.13-.05.12.07.24.14.36.22.2.13-.23-.21-.11-.08.05.05.1.09.15.14.04.04.08.09.12.13.19.19-.2-.31-.06-.08.07.11.14.22.2.33.13.23-.02-.1-.05-.13.03.03.06.16.07.2.04.14.07.28.09.42l-.05-.4c.02.12.02.25.03.37.01.78.68,1.54,1.5,1.5s1.51-.66,1.5-1.5c-.02-1.81-1.15-3.32-2.82-3.95-1.54-.58-3.46-.06-4.51,1.2-.61.73-.93,1.54-1.03,2.49-.08.81.15,1.7.57,2.39s1.03,1.28,1.75,1.61c.88.4,1.77.51,2.73.34,1.92-.35,3.28-2.19,3.31-4.09.01-.78-.7-1.54-1.5-1.5s-1.49.66-1.5,1.5Z"/>
    </g>
  </g>
</svg>