<svg xmlns="http://www.w3.org/2000/svg" id="Capa_2" data-name="Capa 2" viewBox="0 0 137.16 126.44"><defs><style>      .cls-1, .cls-2, .cls-3 {        fill: #fff;      }      .cls-1, .cls-4, .cls-5, .cls-6, .cls-3, .cls-7 {        stroke-linecap: round;        stroke-width: 2.1px;      }      .cls-1, .cls-5, .cls-3, .cls-7 {        stroke: #5e5e5e;      }      .cls-1, .cls-6, .cls-7 {        stroke-linejoin: round;      }      .cls-8 {        fill: #5e5e5e;      }      .cls-9 {        fill: #dbdbdb;      }      .cls-4, .cls-5, .cls-6, .cls-7 {        fill: none;      }      .cls-4, .cls-5, .cls-3 {        stroke-miterlimit: 10;      }      .cls-4, .cls-6 {        stroke: #00b0ff;      }      .cls-10 {        fill: #00b0ff;      }    </style></defs><g id="Capa_1-2" data-name="Capa 1"><g><g><path class="cls-9" d="M85.37,80.68h16.47c2.43,0,4.41,1.97,4.41,4.41v32.06c0,2.43-1.97,4.41-4.41,4.41h-16.47v-40.87h0Z"></path><path class="cls-9" d="M42.52,49.05h46.54c1.73,0,3.13,1.4,3.13,3.13v22.18h-52.8v-22.18c0-1.73,1.4-3.13,3.13-3.13Z"></path><rect class="cls-7" x="17.2" y="79.24" width="5.24" height="31.38"></rect><path class="cls-7" d="M29.63,94.93v20.49h-4.77c-1.3,0-2.36-1.06-2.36-2.36v-36.15c0-1.3,1.06-2.36,2.36-2.36h4.77v11.83"></path><path class="cls-7" d="M29.63,94.93v20.49h63.05c4.59,0,8.31-3.72,8.31-8.31v-24.25c0-4.59-3.72-8.31-8.31-8.31H29.63v11.83"></path><line class="cls-6" x1="40.27" y1="81.39" x2="80.12" y2="81.39"></line><line class="cls-6" x1="40.27" y1="88.51" x2="80.12" y2="88.51"></line><line class="cls-6" x1="40.27" y1="95.93" x2="45.94" y2="95.93"></line><line class="cls-6" x1="54.81" y1="95.93" x2="80.12" y2="95.93"></line><line class="cls-6" x1="40.27" y1="102.33" x2="80.12" y2="102.33"></line><rect class="cls-7" x="87.54" y="90.55" width="13.45" height="11.78"></rect><line class="cls-6" x1="86.52" y1="82.98" x2="94.26" y2="82.98"></line><polyline class="cls-7" points="57.85 68 75.32 68 75.32 74.55 43.1 74.55 43.1 68 49.14 68"></polyline><path class="cls-7" d="M48.34,68h-14.62v-20.22c0-2.81,2.28-5.09,5.09-5.09h42.61c2.81,0,5.09,2.28,5.09,5.09v20.22h-30.09"></path><rect class="cls-7" x="1.05" y="93.02" width="16.14" height="6.54"></rect><rect class="cls-7" x="43.39" y="120.25" width="35.34" height="5.14"></rect><path class="cls-1" d="M51.21,107.87h19.72c1.58,0,2.87,1.28,2.87,2.87v9.52h-25.45v-9.52c0-1.58,1.28-2.87,2.87-2.87Z"></path><line class="cls-7" x1="61.07" y1="49.53" x2="86.52" y2="49.53"></line><circle class="cls-6" cx="49.14" cy="56.57" r="4.38"></circle><line class="cls-7" x1="80.12" y1="74.55" x2="80.12" y2="115.42"></line></g><g><g><line class="cls-4" x1="121.75" y1="15.61" x2="127.84" y2="9.52"></line><line class="cls-4" x1="110.92" y1="8.26" x2="113" y2="1.05"></line><line class="cls-4" x1="128.83" y1="26.17" x2="136.11" y2="24.32"></line><circle class="cls-3" cx="96.63" cy="40.72" r="26.64"></circle><rect class="cls-10" x="87.79" y="55.24" width="18.53" height="3.34" rx="1.03" ry="1.03"></rect><g><path class="cls-8" d="M86.48,41.1h-5.74c-.93,0-1.68.76-1.68,1.71v5.62c0,.94.75,1.71,1.68,1.71h5.74c.93,0,1.68-.76,1.68-1.71v-5.62c0-.94-.75-1.71-1.68-1.71ZM81.43,47.72v-4.41h4.56v4.41h-4.56Z"></path><path class="cls-8" d="M86.48,29.66h-5.74c-.93,0-1.68.76-1.68,1.71v5.62c0,.94.75,1.71,1.68,1.71h5.74c.93,0,1.68-.76,1.68-1.71v-5.62c0-.94-.75-1.71-1.68-1.71ZM81.43,36.28v-4.41h4.56v4.41h-4.56Z"></path><path class="cls-8" d="M97.82,29.66h-5.79c-.94,0-1.7.76-1.7,1.71v5.62c0,.94.76,1.71,1.7,1.71h5.79c.94,0,1.7-.76,1.7-1.71v-5.62c0-.94-.76-1.71-1.7-1.71ZM92.73,36.28v-4.41h4.59v4.41h-4.59Z"></path><rect class="cls-8" x="90.4" y="43.26" width="6.72" height="2.27"></rect><rect class="cls-8" x="97.12" y="40.99" width="2.4" height="2.27"></rect><rect class="cls-8" x="90.41" y="40.99" width="2.4" height="3.48"></rect><rect class="cls-8" x="97.12" y="45.53" width="2.4" height="2.27"></rect><rect class="cls-8" x="90.4" y="47.8" width="2.24" height="2.32"></rect><rect class="cls-8" x="94.88" y="47.8" width="2.24" height="2.32"></rect><rect class="cls-8" x="92.64" y="44.82" width="2.24" height="2.98"></rect></g></g><g><rect class="cls-2" x="104.1" y="30.71" width="11.25" height="18.36" rx="1.06" ry="1.06"></rect><path class="cls-8" d="M114.29,31.77h0s0,16.26,0,16.26h-9.14s0-16.26,0-16.26h9.14M114.29,29.66h-9.14c-1.16,0-2.11.94-2.11,2.11v16.25c0,1.16.94,2.11,2.11,2.11h9.14c1.16,0,2.11-.94,2.11-2.11v-16.25c0-1.16-.94-2.11-2.11-2.11h0Z"></path></g><line class="cls-5" x1="105.14" y1="36.56" x2="114.86" y2="36.56"></line><line class="cls-5" x1="105.14" y1="44.84" x2="114.86" y2="44.84"></line></g><g><path class="cls-6" d="M77.53,14.09s-19.31,1.11-27.84,20.43"></path><polyline class="cls-6" points="48 27.6 48.63 36.06 55.87 32.2"></polyline></g></g></g></svg>