<svg xmlns="http://www.w3.org/2000/svg" xmlns:xlink="http://www.w3.org/1999/xlink" id="Capa_2" data-name="Capa 2" viewBox="0 0 162.37 122.37"><defs><style>      .cls-1 {        fill: #fff;      }      .cls-2 {        fill: #5e5e5e;      }      .cls-3 {        fill: none;      }      .cls-4 {        fill: #dbdbdb;      }      .cls-5 {        fill: #00b0ff;      }      .cls-6 {        clip-path: url(#clippath);      }    </style><clipPath id="clippath"><rect class="cls-3" x="44.26" y="28.13" width="75.45" height="55.17"></rect></clipPath></defs><g id="Capa_1-2" data-name="Capa 1"><g><rect class="cls-4" x="66.5" y="68.72" width="14.36" height="14.59" rx="5.01" ry="5.01"></rect><rect class="cls-4" x="104.91" y="31.01" width="14.36" height="14.59" rx="5.01" ry="5.01"></rect><rect class="cls-4" x="47.14" y="49.99" width="14.36" height="14.59" rx="5.01" ry="5.01"></rect><path class="cls-4" d="M130.81,25.29H37.38c-.06-.53-.57-5.55,2.87-9.13,2.03-2.12,4.79-2.59,6.65-2.8,7.12-.79,35.89-.76,74.87.18,1.12.32,2.49.87,3.84,1.86,4.45,3.27,5.09,8.66,5.2,9.88Z"></path><g class="cls-6"><g><path class="cls-2" d="M54.56,42.24c-1.1,0-2.2,0-3.3,0-1.35,0-2.59-.11-3.61-1.13s-1.13-2.3-1.13-3.67c0-1.08-.02-2.16,0-3.24.03-1.83,1.33-3.44,3.15-3.77,1.09-.2,2.3-.06,3.4-.06,1.3,0,2.57-.09,3.7.71,1.22.86,1.61,2.18,1.61,3.6,0,1.24.02,2.48,0,3.72-.04,2.11-1.72,3.79-3.83,3.83-1.45.03-1.45,2.28,0,2.25,2.51-.05,4.73-1.56,5.66-3.9.58-1.45.41-3.1.41-4.63,0-1.7.06-3.35-.86-4.87-1.14-1.89-3.17-2.95-5.36-2.96-1.31,0-2.63,0-3.95,0-2.2.01-4.27,1.12-5.38,3.04-.87,1.51-.82,3.12-.82,4.79,0,1.53-.17,3.18.41,4.63.95,2.38,3.21,3.88,5.76,3.9,1.37,0,2.74,0,4.12,0,1.45,0,1.45-2.25,0-2.25Z"></path><path class="cls-2" d="M73.85,42.24c-1.1,0-2.2,0-3.3,0-1.35,0-2.59-.11-3.61-1.13s-1.13-2.3-1.13-3.67c0-1.08-.02-2.16,0-3.24.03-1.83,1.33-3.44,3.15-3.77,1.09-.2,2.3-.06,3.4-.06,1.3,0,2.57-.09,3.7.71,1.22.86,1.61,2.18,1.61,3.6,0,1.24.02,2.48,0,3.72-.04,2.11-1.72,3.79-3.83,3.83-1.45.03-1.45,2.28,0,2.25,2.51-.05,4.73-1.56,5.66-3.9.58-1.45.41-3.1.41-4.63,0-1.7.06-3.35-.86-4.87-1.14-1.89-3.17-2.95-5.36-2.96-1.31,0-2.63,0-3.95,0-2.2.01-4.27,1.12-5.38,3.04-.87,1.51-.82,3.12-.82,4.79,0,1.53-.17,3.18.41,4.63.95,2.38,3.21,3.88,5.76,3.9,1.37,0,2.74,0,4.12,0,1.45,0,1.45-2.25,0-2.25Z"></path><path class="cls-2" d="M93.13,42.24c-1.1,0-2.2,0-3.3,0-1.35,0-2.59-.11-3.61-1.13s-1.13-2.3-1.13-3.67c0-1.08-.02-2.16,0-3.24.03-1.83,1.33-3.44,3.15-3.77,1.09-.2,2.3-.06,3.4-.06,1.3,0,2.57-.09,3.7.71,1.22.86,1.61,2.18,1.61,3.6,0,1.24.02,2.48,0,3.72-.04,2.11-1.72,3.79-3.83,3.83-1.45.03-1.45,2.28,0,2.25,2.51-.05,4.73-1.56,5.66-3.9.58-1.45.41-3.1.41-4.63,0-1.7.06-3.35-.86-4.87-1.14-1.89-3.17-2.95-5.36-2.96-1.31,0-2.63,0-3.95,0-2.2.01-4.27,1.12-5.38,3.04-.87,1.51-.82,3.12-.82,4.79,0,1.53-.17,3.18.41,4.63.95,2.38,3.21,3.88,5.76,3.9,1.37,0,2.74,0,4.12,0,1.45,0,1.45-2.25,0-2.25Z"></path><path class="cls-2" d="M112.42,42.24c-1.1,0-2.2,0-3.3,0-1.35,0-2.59-.11-3.61-1.13s-1.13-2.3-1.13-3.67c0-1.08-.02-2.16,0-3.24.03-1.83,1.33-3.44,3.15-3.77,1.09-.2,2.3-.06,3.4-.06,1.3,0,2.57-.09,3.7.71,1.22.86,1.61,2.18,1.61,3.6,0,1.24.02,2.48,0,3.72-.04,2.11-1.72,3.79-3.83,3.83-1.45.03-1.45,2.28,0,2.25,2.51-.05,4.73-1.56,5.66-3.9.58-1.45.41-3.1.41-4.63,0-1.7.06-3.35-.86-4.87-1.14-1.89-3.17-2.95-5.36-2.96-1.31,0-2.63,0-3.95,0-2.2.01-4.27,1.12-5.38,3.04-.87,1.51-.82,3.12-.82,4.79,0,1.53-.17,3.18.41,4.63.95,2.38,3.21,3.88,5.76,3.9,1.37,0,2.74,0,4.12,0,1.45,0,1.45-2.25,0-2.25Z"></path><path class="cls-2" d="M54.56,61.29c-1.1,0-2.2,0-3.3,0-1.35,0-2.59-.11-3.61-1.13s-1.13-2.3-1.13-3.67c0-1.08-.02-2.16,0-3.24.03-1.83,1.33-3.44,3.15-3.77,1.09-.2,2.3-.06,3.4-.06,1.3,0,2.57-.09,3.7.71,1.22.86,1.61,2.18,1.61,3.6,0,1.24.02,2.48,0,3.72-.04,2.11-1.72,3.79-3.83,3.83-1.45.03-1.45,2.28,0,2.25,2.51-.05,4.73-1.56,5.66-3.9.58-1.45.41-3.1.41-4.63,0-1.7.06-3.35-.86-4.87-1.14-1.89-3.17-2.95-5.36-2.96-1.31,0-2.63,0-3.95,0-2.2.01-4.27,1.12-5.38,3.04-.87,1.51-.82,3.12-.82,4.79,0,1.53-.17,3.18.41,4.63.95,2.38,3.21,3.88,5.76,3.9,1.37,0,2.74,0,4.12,0,1.45,0,1.45-2.25,0-2.25Z"></path><path class="cls-2" d="M73.85,61.29c-1.1,0-2.2,0-3.3,0-1.35,0-2.59-.11-3.61-1.13s-1.13-2.3-1.13-3.67c0-1.08-.02-2.16,0-3.24.03-1.83,1.33-3.44,3.15-3.77,1.09-.2,2.3-.06,3.4-.06,1.3,0,2.57-.09,3.7.71,1.22.86,1.61,2.18,1.61,3.6,0,1.24.02,2.48,0,3.72-.04,2.11-1.72,3.79-3.83,3.83-1.45.03-1.45,2.28,0,2.25,2.51-.05,4.73-1.56,5.66-3.9.58-1.45.41-3.1.41-4.63,0-1.7.06-3.35-.86-4.87-1.14-1.89-3.17-2.95-5.36-2.96-1.31,0-2.63,0-3.95,0-2.2.01-4.27,1.12-5.38,3.04-.87,1.51-.82,3.12-.82,4.79,0,1.53-.17,3.18.41,4.63.95,2.38,3.21,3.88,5.76,3.9,1.37,0,2.74,0,4.12,0,1.45,0,1.45-2.25,0-2.25Z"></path><path class="cls-2" d="M93.13,61.29c-1.1,0-2.2,0-3.3,0-1.35,0-2.59-.11-3.61-1.13s-1.13-2.3-1.13-3.67c0-1.08-.02-2.16,0-3.24.03-1.83,1.33-3.44,3.15-3.77,1.09-.2,2.3-.06,3.4-.06,1.3,0,2.57-.09,3.7.71,1.22.86,1.61,2.18,1.61,3.6,0,1.24.02,2.48,0,3.72-.04,2.11-1.72,3.79-3.83,3.83-1.45.03-1.45,2.28,0,2.25,2.51-.05,4.73-1.56,5.66-3.9.58-1.45.41-3.1.41-4.63,0-1.7.06-3.35-.86-4.87-1.14-1.89-3.17-2.95-5.36-2.96-1.31,0-2.63,0-3.95,0-2.2.01-4.27,1.12-5.38,3.04-.87,1.51-.82,3.12-.82,4.79,0,1.53-.17,3.18.41,4.63.95,2.38,3.21,3.88,5.76,3.9,1.37,0,2.74,0,4.12,0,1.45,0,1.45-2.25,0-2.25Z"></path><path class="cls-2" d="M112.42,61.29c-1.1,0-2.2,0-3.3,0-1.35,0-2.59-.11-3.61-1.13s-1.13-2.3-1.13-3.67c0-1.08-.02-2.16,0-3.24.03-1.83,1.33-3.44,3.15-3.77,1.09-.2,2.3-.06,3.4-.06,1.3,0,2.57-.09,3.7.71,1.22.86,1.61,2.18,1.61,3.6,0,1.24.02,2.48,0,3.72-.04,2.11-1.72,3.79-3.83,3.83-1.45.03-1.45,2.28,0,2.25,2.51-.05,4.73-1.56,5.66-3.9.58-1.45.41-3.1.41-4.63,0-1.7.06-3.35-.86-4.87-1.14-1.89-3.17-2.95-5.36-2.96-1.31,0-2.63,0-3.95,0-2.2.01-4.27,1.12-5.38,3.04-.87,1.51-.82,3.12-.82,4.79,0,1.53-.17,3.18.41,4.63.95,2.38,3.21,3.88,5.76,3.9,1.37,0,2.74,0,4.12,0,1.45,0,1.45-2.25,0-2.25Z"></path><path class="cls-2" d="M54.56,80.34c-1.1,0-2.2,0-3.3,0-1.35,0-2.59-.11-3.61-1.13s-1.13-2.3-1.13-3.67c0-1.08-.02-2.16,0-3.24.03-1.83,1.33-3.44,3.15-3.77,1.09-.2,2.3-.06,3.4-.06,1.3,0,2.57-.09,3.7.71,1.22.86,1.61,2.18,1.61,3.6,0,1.24.02,2.48,0,3.72-.04,2.11-1.72,3.79-3.83,3.83-1.45.03-1.45,2.28,0,2.25,2.51-.05,4.73-1.56,5.66-3.9.58-1.45.41-3.1.41-4.63,0-1.7.06-3.35-.86-4.87-1.14-1.89-3.17-2.95-5.36-2.96-1.31,0-2.63,0-3.95,0-2.2.01-4.27,1.12-5.38,3.04-.87,1.51-.82,3.12-.82,4.79,0,1.53-.17,3.18.41,4.63.95,2.38,3.21,3.88,5.76,3.9,1.37,0,2.74,0,4.12,0,1.45,0,1.45-2.25,0-2.25Z"></path><path class="cls-2" d="M73.85,80.34c-1.1,0-2.2,0-3.3,0-1.35,0-2.59-.11-3.61-1.13s-1.13-2.3-1.13-3.67c0-1.08-.02-2.16,0-3.24.03-1.83,1.33-3.44,3.15-3.77,1.09-.2,2.3-.06,3.4-.06,1.3,0,2.57-.09,3.7.71,1.22.86,1.61,2.18,1.61,3.6,0,1.24.02,2.48,0,3.72-.04,2.11-1.72,3.79-3.83,3.83-1.45.03-1.45,2.28,0,2.25,2.51-.05,4.73-1.56,5.66-3.9.58-1.45.41-3.1.41-4.63,0-1.7.06-3.35-.86-4.87-1.14-1.89-3.17-2.95-5.36-2.96-1.31,0-2.63,0-3.95,0-2.2.01-4.27,1.12-5.38,3.04-.87,1.51-.82,3.12-.82,4.79,0,1.53-.17,3.18.41,4.63.95,2.38,3.21,3.88,5.76,3.9,1.37,0,2.74,0,4.12,0,1.45,0,1.45-2.25,0-2.25Z"></path><path class="cls-2" d="M93.13,80.34c-1.1,0-2.2,0-3.3,0-1.35,0-2.59-.11-3.61-1.13s-1.13-2.3-1.13-3.67c0-1.08-.02-2.16,0-3.24.03-1.83,1.33-3.44,3.15-3.77,1.09-.2,2.3-.06,3.4-.06,1.3,0,2.57-.09,3.7.71,1.22.86,1.61,2.18,1.61,3.6,0,1.24.02,2.48,0,3.72-.04,2.11-1.72,3.79-3.83,3.83-1.45.03-1.45,2.28,0,2.25,2.51-.05,4.73-1.56,5.66-3.9.58-1.45.41-3.1.41-4.63,0-1.7.06-3.35-.86-4.87-1.14-1.89-3.17-2.95-5.36-2.96-1.31,0-2.63,0-3.95,0-2.2.01-4.27,1.12-5.38,3.04-.87,1.51-.82,3.12-.82,4.79,0,1.53-.17,3.18.41,4.63.95,2.38,3.21,3.88,5.76,3.9,1.37,0,2.74,0,4.12,0,1.45,0,1.45-2.25,0-2.25Z"></path><path class="cls-2" d="M112.42,80.34c-1.1,0-2.2,0-3.3,0-1.35,0-2.59-.11-3.61-1.13s-1.13-2.3-1.13-3.67c0-1.08-.02-2.16,0-3.24.03-1.83,1.33-3.44,3.15-3.77,1.09-.2,2.3-.06,3.4-.06,1.3,0,2.57-.09,3.7.71,1.22.86,1.61,2.18,1.61,3.6,0,1.24.02,2.48,0,3.72-.04,2.11-1.72,3.79-3.83,3.83-1.45.03-1.45,2.28,0,2.25,2.51-.05,4.73-1.56,5.66-3.9.58-1.45.41-3.1.41-4.63,0-1.7.06-3.35-.86-4.87-1.14-1.89-3.17-2.95-5.36-2.96-1.31,0-2.63,0-3.95,0-2.2.01-4.27,1.12-5.38,3.04-.87,1.51-.82,3.12-.82,4.79,0,1.53-.17,3.18.41,4.63.95,2.38,3.21,3.88,5.76,3.9,1.37,0,2.74,0,4.12,0,1.45,0,1.45-2.25,0-2.25Z"></path></g></g><path class="cls-2" d="M115.93,87.15h-60.82c-2.47,0-4.94.03-7.41,0-4.36-.05-8.37-2.67-10.06-6.73-.71-1.72-.82-3.47-.82-5.29,0-11.02,0-22.03,0-33.05v-16.14c0-1.12-.01-2.23,0-3.35.03-3.55,1.66-6.91,4.58-8.98,3.22-2.28,6.81-2.02,10.51-2.02h14.9c12.73,0,25.45,0,38.18,0h10.38c6.23,0,11.38,4.58,11.44,10.97.09,9.72,0,19.45,0,29.17v18.04c0,3.23.46,7.07-.64,10.16-1.53,4.31-5.71,7.14-10.24,7.2-1.45.02-1.45,2.27,0,2.25,4.63-.07,8.97-2.49,11.33-6.51,1.31-2.23,1.8-4.71,1.8-7.26V25.94c0-1.12.01-2.25,0-3.37-.04-3.72-1.54-7.31-4.33-9.81-2.49-2.24-5.65-3.39-8.99-3.41-1.02,0-2.04,0-3.05,0-11.7,0-23.41,0-35.11,0-9.8,0-19.61-.02-29.41,0-7.37.01-13.5,5.62-13.6,13.13-.04,3.04,0,6.08,0,9.12v38.03c0,3.49-.46,7.58.72,10.92,1.52,4.3,5.24,7.67,9.74,8.58,1.33.27,2.65.28,4,.28h31.91c11.03,0,22.05,0,33.08,0h1.91c1.45,0,1.45-2.25,0-2.25Z"></path><g><g><rect class="cls-1" x="53.17" y="1.12" width="8.33" height="18.71" rx="4.17" ry="4.17"></rect><path class="cls-2" d="M57.34,18.7c-1.74,0-3-1.43-3.04-3.11-.02-.87,0-1.75,0-2.62,0-2.49-.02-4.99,0-7.48.01-1.46.83-2.8,2.32-3.16,1.93-.47,3.7,1.02,3.77,2.95.07,2.15,0,4.32,0,6.47,0,1.21,0,2.43,0,3.64-.01,1.79-1.18,3.25-3.04,3.31-1.44.05-1.45,2.3,0,2.25,2.57-.08,4.82-1.88,5.22-4.47.16-1.04.07-2.14.07-3.19,0-2.67.07-5.34,0-8.01S60.66.38,58.01.04c-2.49-.32-4.85,1.2-5.68,3.56-.39,1.11-.28,2.36-.28,3.52v5.08c0,1.15-.03,2.31,0,3.46.08,2.87,2.36,5.29,5.29,5.29,1.45,0,1.45-2.25,0-2.25Z"></path></g><g><rect class="cls-1" x="104.31" y="1.12" width="8.33" height="18.71" rx="4.17" ry="4.17"></rect><path class="cls-2" d="M108.48,18.7c-1.74,0-3-1.43-3.04-3.11-.02-.87,0-1.75,0-2.62,0-2.49-.02-4.99,0-7.48.01-1.46.83-2.8,2.32-3.16,1.93-.47,3.7,1.02,3.77,2.95.07,2.15,0,4.32,0,6.47,0,1.21,0,2.43,0,3.64-.01,1.79-1.18,3.25-3.04,3.31-1.44.05-1.45,2.3,0,2.25,2.57-.08,4.82-1.88,5.22-4.47.16-1.04.07-2.14.07-3.19,0-2.67.07-5.34,0-8.01S111.8.38,109.15.04c-2.49-.32-4.85,1.2-5.68,3.56-.39,1.11-.28,2.36-.28,3.52v5.08c0,1.15-.03,2.31,0,3.46.08,2.87,2.36,5.29,5.29,5.29,1.45,0,1.45-2.25,0-2.25Z"></path></g></g><g><circle class="cls-1" cx="121.9" cy="80.79" r="22.97"></circle><path class="cls-1" d="M145.99,80.79c-.08-10.03-6.36-19.11-15.78-22.61-9.44-3.52-20.5-.52-26.88,7.27s-7.32,19.1-2.06,27.78,15.5,13.12,25.39,11.18c11.17-2.2,19.24-12.32,19.33-23.62.01-1.45-2.24-1.45-2.25,0-.07,9.09-5.81,17.49-14.44,20.56-8.59,3.05-18.3.41-24.17-6.56-5.94-7.05-6.68-17.44-1.92-25.31s14.08-11.94,23.02-10.11c10.13,2.07,17.43,11.12,17.51,21.41.01,1.45,2.26,1.45,2.25,0Z"></path></g><circle class="cls-4" cx="124.08" cy="84.31" r="19.81"></circle><g><circle class="cls-1" cx="121.9" cy="80.79" r="19.17"></circle><path class="cls-5" d="M142.19,80.79c-.08-8.46-5.36-16.1-13.31-19.06s-17.29-.42-22.66,6.16c-5.38,6.6-6.14,16.11-1.69,23.42s13.1,11.02,21.44,9.36c9.39-1.88,16.13-10.39,16.22-19.88.01-1.45-2.24-1.45-2.25,0-.07,7.47-4.73,14.37-11.81,16.94s-15.21.41-20.1-5.39-5.5-14.33-1.63-20.81c3.86-6.45,11.58-9.95,18.98-8.46,8.42,1.69,14.49,9.16,14.56,17.71.01,1.45,2.26,1.45,2.25,0Z"></path></g><path class="cls-5" d="M129.84,71.8c-3.52,5.61-7.04,11.22-10.56,16.83l1.77-.23c-2.42-2.2-4.84-4.4-7.26-6.6-1.07-.97-2.67.61-1.59,1.59,2.42,2.2,4.84,4.4,7.26,6.6.55.5,1.37.41,1.77-.23,3.52-5.61,7.04-11.22,10.56-16.83.77-1.23-1.17-2.36-1.94-1.14h0Z"></path><path class="cls-2" d="M36.03,26.41h88.11c1.2,0,2.43.09,3.62,0,.05,0,.11,0,.16,0,1.45,0,1.45-2.25,0-2.25H39.82c-1.2,0-2.43-.09-3.62,0-.05,0-.11,0-.16,0-1.45,0-1.45,2.25,0,2.25h0Z"></path><g><path class="cls-1" d="M1.14,49.74v16.17c0,2.83,2.31,5.14,5.14,5.14h21.96c2.83,0,5.14-2.31,5.14-5.14v-6.47l8.09-4.67-8.09-4.67v-.36c0-2.83-2.31-5.14-5.14-5.14H6.28c-2.83,0-5.14,2.31-5.14,5.14Z"></path><path class="cls-5" d="M.02,49.74v11.68c0,1.49-.04,2.99,0,4.48.09,3.47,2.79,6.18,6.27,6.28s7.07,0,10.6,0c3.76,0,7.54.1,11.31,0,3.55-.1,6.21-2.81,6.31-6.34.06-2.13,0-4.26,0-6.39l-.56.97c2.7-1.56,5.39-3.11,8.09-4.67.73-.42.73-1.52,0-1.94-2.7-1.56-5.39-3.11-8.09-4.67l.56.97c0-3.67-2.65-6.54-6.36-6.62-1.79-.04-3.59,0-5.38,0H6.88c-3.7,0-6.73,2.41-6.86,6.26-.05,1.45,2.2,1.45,2.25,0,.08-2.3,1.83-3.95,4.11-4.01.79-.02,1.58,0,2.37,0h18.81c1.19,0,2.32.14,3.28.95s1.34,1.92,1.42,3.15c.05.68.25,1.04.81,1.38,2.56,1.59,5.23,3.02,7.84,4.53v-1.94c-2.7,1.56-5.39,3.11-8.09,4.67-.34.2-.56.58-.56.97v5.59c0,.96,0,1.87-.47,2.75-.72,1.34-2.07,2.09-3.57,2.14-3.31.11-6.65,0-9.96,0-3.86,0-7.72.02-11.58,0-2.38-.01-4.32-1.52-4.41-4.02-.05-1.27,0-2.55,0-3.82v-12.34c0-1.45-2.25-1.45-2.25,0Z"></path></g><g><path class="cls-5" d="M18.78,58.45c1.27,1.11,2.6,2.14,3.95,3.15.59.44,1.08.82,1.65,1.28.33.27.66.54.99.82.3.26.72.57.88.83s.16.33.16.61c0,.16-.07.42-.17.56.06-.08-.24.23-.11.14-.04.03-.38.21-.26.16-.3.12-.49.1-.69.05-.27-.08-.35-.12-.56-.34-.33-.35-.65-.72-.97-1.07-.54-.59-1.08-1.17-1.62-1.75-1.26-1.34-2.52-2.68-3.75-4.04-.41-.45-1.18-.41-1.59,0-.45.45-.41,1.14,0,1.59,1.24,1.36,2.49,2.7,3.75,4.04.64.68,1.27,1.37,1.9,2.06.68.75,1.32,1.48,2.36,1.71,2,.44,3.95-1.02,3.97-3.1,0-.98-.43-1.91-1.16-2.56s-1.53-1.3-2.32-1.91c-1.65-1.28-3.24-2.44-4.81-3.81-.46-.4-1.14-.45-1.59,0-.41.41-.46,1.19,0,1.59h0Z"></path><g><circle class="cls-1" cx="15.01" cy="55.94" r="7.49"></circle><path class="cls-5" d="M23.63,55.94c-.05-3.6-2.26-6.8-5.63-8.08s-7.34-.2-9.6,2.57-2.66,6.8-.79,9.92,5.5,4.69,9.04,4.05c4.05-.73,6.93-4.42,6.98-8.46.02-1.45-2.23-1.45-2.25,0-.04,2.63-1.66,5.08-4.17,5.98s-5.45.13-7.17-1.98-1.85-5.01-.5-7.27,4.03-3.5,6.6-3c3.03.58,5.19,3.2,5.23,6.27.02,1.45,2.27,1.45,2.25,0Z"></path></g></g><g><path class="cls-1" d="M161.23,40.9v-16.17c0-2.83-2.31-5.14-5.14-5.14h-21.96c-2.83,0-5.14,2.31-5.14,5.14v6.47s-8.09,4.67-8.09,4.67l8.09,4.67v.36c0,2.83,2.31,5.14,5.14,5.14h21.96c2.83,0,5.14-2.31,5.14-5.14Z"></path><path class="cls-5" d="M162.36,40.9c0-3.89,0-7.79,0-11.68,0-1.49.04-2.99,0-4.48-.09-3.47-2.79-6.18-6.27-6.28s-7.07,0-10.6,0c-3.76,0-7.54-.1-11.31,0-3.55.1-6.21,2.81-6.31,6.34-.06,2.13,0,4.26,0,6.39l.56-.97c-2.7,1.56-5.39,3.11-8.09,4.67-.73.42-.73,1.52,0,1.94,2.7,1.56,5.39,3.11,8.09,4.67l-.56-.97c0,3.67,2.65,6.54,6.36,6.62,1.79.04,3.59,0,5.38,0h15.89c3.7,0,6.73-2.41,6.86-6.26.05-1.45-2.2-1.45-2.25,0-.08,2.3-1.83,3.95-4.11,4.01-.79.02-1.58,0-2.37,0-3.42,0-6.84,0-10.26,0h-8.55c-1.19,0-2.32-.14-3.28-.95s-1.34-1.92-1.42-3.15c-.05-.68-.25-1.04-.81-1.38-2.56-1.59-5.23-3.02-7.84-4.53v1.94c2.7-1.56,5.39-3.11,8.09-4.67.34-.2.56-.58.56-.97v-5.59c0-.96,0-1.87.47-2.75.72-1.34,2.07-2.09,3.57-2.14,3.31-.11,6.65,0,9.96,0,3.86,0,7.72-.02,11.58,0,2.38.01,4.32,1.52,4.41,4.02.05,1.27,0,2.55,0,3.82,0,4.11,0,8.22,0,12.34,0,1.45,2.25,1.45,2.25,0Z"></path></g><g><polygon class="cls-5" points="144.42 25.57 147.17 24.18 148.58 26.93 151.62 27.42 151.15 30.47 153.32 32.65 151.15 34.84 151.62 37.89 148.58 38.38 147.17 41.13 144.42 39.73 141.66 41.13 140.25 38.38 137.21 37.89 137.68 34.84 135.51 32.65 137.68 30.47 137.21 27.42 140.25 26.93 141.66 24.18 144.42 25.57"></polygon><path class="cls-5" d="M144.98,26.54l2.75-1.39-1.54-.4.79,1.53c.25.48.47,1.19.91,1.53s1.19.33,1.73.42l1.7.27-.79-1.38-.26,1.7c-.08.54-.36,1.4-.21,1.95s.86,1.07,1.25,1.46l1.21,1.22v-1.59c-.4.41-.81.81-1.21,1.22s-1.09.9-1.25,1.46.13,1.41.21,1.95l.26,1.7.79-1.38-1.7.27c-.54.09-1.28.07-1.73.42s-.66,1.04-.91,1.53l-.79,1.53,1.54-.4-1.53-.78c-.49-.25-1.21-.77-1.79-.77s-1.3.52-1.79.77l-1.53.78,1.54.4-.79-1.53c-.25-.48-.47-1.19-.91-1.53s-1.19-.33-1.73-.42l-1.7-.27.79,1.38.26-1.7c.08-.54.36-1.4.21-1.95s-.86-1.07-1.25-1.46l-1.21-1.22v1.59l1.21-1.22c.39-.39,1.09-.9,1.25-1.46s-.13-1.41-.21-1.95l-.26-1.7-.79,1.38,1.7-.27c.54-.09,1.28-.07,1.73-.42s.66-1.04.91-1.53l.79-1.53-1.54.4,2.75,1.39c1.29.65,2.43-1.29,1.14-1.94l-2.75-1.39c-.52-.26-1.25-.16-1.54.4l-1.41,2.74.67-.52-3.04.49c-.65.1-.87.84-.79,1.38.16,1.02.31,2.03.47,3.05l.29-1.09c-.72.73-1.45,1.46-2.17,2.19-.43.43-.43,1.16,0,1.59.72.73,1.45,1.46,2.17,2.19l-.29-1.09c-.16,1.02-.31,2.03-.47,3.05-.08.55.13,1.28.79,1.38,1.01.16,2.03.33,3.04.49l-.67-.52,1.41,2.74c.29.56,1.02.67,1.54.4.92-.46,1.84-.93,2.75-1.39h-1.14c.92.46,1.84.93,2.75,1.39.52.26,1.25.16,1.54-.4l1.41-2.74-.67.52,3.04-.49c.65-.1.87-.84.79-1.38l-.47-3.05-.29,1.09c.72-.73,1.45-1.46,2.17-2.19.43-.43.43-1.16,0-1.59-.72-.73-1.45-1.46-2.17-2.19l.29,1.09.47-3.05c.08-.55-.13-1.28-.79-1.38-1.01-.16-2.03-.33-3.04-.49l.67.52-1.41-2.74c-.29-.56-1.02-.67-1.54-.4l-2.75,1.39c-1.29.65-.15,2.59,1.14,1.94Z"></path></g><circle class="cls-1" cx="144.42" cy="32.82" r="3.94"></circle><g><path class="cls-1" d="M67.33,121.24h16.17c2.83,0,5.14-2.31,5.14-5.14v-18.56c0-2.83-2.31-5.14-5.14-5.14h-6.47s-4.67-8.09-4.67-8.09l-4.67,8.09h-.36c-2.83,0-5.14,2.31-5.14,5.14v18.56c0,2.83,2.31,5.14,5.14,5.14Z"></path><path class="cls-5" d="M67.33,122.36c3.63,0,7.25,0,10.88,0,1.67,0,3.35.01,5.02,0,2.61-.02,4.99-1.37,6.03-3.84.6-1.41.5-2.89.5-4.38v-6.59c0-3.44.21-6.94-.01-10.37s-3.14-5.88-6.54-5.91c-2.06-.02-4.12,0-6.18,0l.97.56c-1.56-2.7-3.11-5.39-4.67-8.09-.42-.73-1.52-.73-1.94,0-1.56,2.7-3.11,5.39-4.67,8.09l.97-.56c-3.61,0-6.52,2.59-6.62,6.27-.04,1.43,0,2.87,0,4.3,0,4.65-.04,9.3,0,13.95.03,3.6,2.61,6.44,6.26,6.57,1.45.05,1.45-2.2,0-2.25-2.27-.08-3.93-1.8-4.01-4.05-.02-.69,0-1.38,0-2.07v-9.39c0-2.3-.03-4.6,0-6.91.02-1.85,1.11-3.51,2.95-4.02.78-.22,1.72.07,2.3-.59.2-.22.32-.52.47-.77,1.43-2.48,2.86-4.95,4.29-7.43h-1.94c1.56,2.7,3.11,5.39,4.67,8.09.2.34.58.56.97.56h5.22c.77,0,1.57-.06,2.32.14,1.53.42,2.7,1.76,2.91,3.33.14,1.03.04,2.13.04,3.17v6.16c0,3.25.11,6.51,0,9.76-.08,2.41-1.94,4.01-4.28,4.03-1.52.01-3.04,0-4.56,0-3.78,0-7.56,0-11.34,0-1.45,0-1.45,2.25,0,2.25Z"></path></g><g><path class="cls-5" d="M75.42,115.14c1.68-3.06,3.37-6.12,5.05-9.18.11-.27,1-2.6-.35-4.81-1.57-2.58-4.7-2.5-4.92-2.49-.39.02-3,.18-4.42,2.49-1.44,2.36-.34,4.82-.25,5.01,1.63,2.99,3.25,5.98,4.88,8.97Z"></path><path class="cls-5" d="M76.39,115.71c1.05-1.91,2.11-3.82,3.16-5.74.74-1.35,1.77-2.74,2.18-4.23.85-3.09-.55-6.38-3.55-7.62-1.55-.64-3.26-.76-4.85-.24-3.15,1.04-4.88,4.14-4.25,7.38.29,1.5,1.22,2.81,1.94,4.14,1.14,2.1,2.29,4.2,3.43,6.31.69,1.27,2.64.14,1.94-1.14-1.63-3-3.35-5.96-4.9-9,.17.34-.02-.05-.04-.14-.06-.2-.12-.39-.16-.59-.13-.55-.15-1.14-.06-1.7.21-1.28,1.05-2.35,2.22-2.9.36-.17.75-.29,1.15-.37s.22-.07.59-.08c.55,0,.93.03,1.44.16,2.34.6,3.58,2.85,2.94,5.18-.14.51-.43.93-.69,1.4-.47.86-.95,1.72-1.42,2.58-1,1.82-2,3.63-3,5.45-.7,1.27,1.24,2.41,1.94,1.14Z"></path></g><circle class="cls-1" cx="75.41" cy="104.12" r="3.33"></circle></g></g></svg>