<svg xmlns="http://www.w3.org/2000/svg" id="Capa_2" data-name="Capa 2" viewBox="0 0 133.09 113.53"><defs><style>      .cls-1 {        fill: #dbdbdb;      }      .cls-2 {        fill: none;      }      .cls-2, .cls-3 {        stroke: #5e5e5e;        stroke-linecap: round;        stroke-miterlimit: 10;        stroke-width: 2.1px;      }      .cls-3 {        fill: #fff;      }      .cls-4 {        fill: #00b0ff;      }    </style></defs><g id="Capa_1-2" data-name="Capa 1"><g><path class="cls-1" d="M102.29,29.87c.61-14.42-10.59-26.6-25-27.21-10.54-.45-19.88,5.42-24.39,14.24-3-2.27-6.7-3.68-10.74-3.85-10.59-.45-19.54,7.78-19.98,18.36-.06,1.37.03,2.71.25,4.02-7.88.24-14.41,6.58-14.75,14.58-.35,8.37,6.21,15.51,14.58,15.86l47.8,2.02c8.37.35,15.51-6.21,15.86-14.58,0-.1,0-.2,0-.3,9.23-3.71,15.92-12.56,16.36-23.15Z"></path><path class="cls-2" d="M63.45,65.16c8.37.35,15.51-6.21,15.86-14.58,0-.1,0-.2,0-.3"></path><path class="cls-2" d="M95.38,23.04c-1.91-12.02-12.07-21.43-24.7-21.97-10.54-.45-19.88,5.42-24.39,14.24-3-2.27-6.7-3.68-10.74-3.85-10.59-.45-19.54,7.78-19.98,18.36-.06,1.37.03,2.71.25,4.02-7.88.24-14.41,6.58-14.75,14.58-.17,4.12,1.33,7.94,3.89,10.8"></path><path class="cls-3" d="M115.19,53.21c-.2,0-.39,0-.58.01.38-1.53.58-3.13.58-4.77,0-10.99-8.91-19.89-19.89-19.89-4.28,0-8.23,1.35-11.47,3.65-5.12-7.28-13.58-12.04-23.15-12.04-15.29,0-27.75,12.14-28.26,27.31-1.19-.22-2.42-.34-3.68-.34-10.99,0-19.89,8.91-19.89,19.89s8.91,19.89,19.89,19.89h86.46c9.31,0,16.85-7.55,16.85-16.85s-7.55-16.85-16.85-16.85Z"></path><g><path class="cls-4" d="M72.47,41.26c.77,0,1.54.2,2.23.59l26.01,14.74c1.44.81,2.32,2.35,2.3,4-.16,10.97-2.98,42.03-28.81,52.61-.56.23-1.14.34-1.73.34s-1.18-.11-1.73-.34c-25.79-10.56-28.63-41.63-28.81-52.6-.03-1.65.86-3.19,2.3-4l26.01-14.74c.69-.39,1.46-.59,2.23-.59"></path><path class="cls-3" d="M66.11,94.63c-3.6,0-6.53-2.93-6.53-6.54v-10.2c0-3.6,2.93-6.54,6.53-6.54h12.71c3.6,0,6.53,2.93,6.53,6.54v10.2c0,3.6-2.93,6.54-6.53,6.54h-12.71Z"></path><path class="cls-2" d="M63.82,71.35v-3.89c-.01-.54-.02-5.59,3.48-8.2,1.34-1,3.07-1.53,5-1.53h.35c1.93,0,3.65.53,4.99,1.53,3.5,2.61,3.49,7.66,3.48,8.23v3.87"></path><line class="cls-2" x1="72.47" y1="78.75" x2="72.47" y2="86.48"></line></g></g></g></svg>