<svg xmlns="http://www.w3.org/2000/svg" id="Capa_2" data-name="Capa 2" viewBox="0 0 95.69 122.46"><defs><style>      .cls-1 {        fill: #fff;      }      .cls-2 {        fill: #5e5e5e;      }      .cls-3 {        fill: #dbdbdb;      }      .cls-4 {        fill: #00b0ff;      }    </style></defs><g id="Capa_1-2" data-name="Capa 1"><g><path class="cls-3" d="M75.65,98.79c6.08,5.45,12.17,10.89,18.25,16.34,1.95,1.57,2.1,4.47.5,6.13-1.62,1.69-4.58,1.63-6.21-.33-5.65-6.37-11.3-12.75-16.95-19.12"></path><rect class="cls-3" x="2.81" y="66.84" width="14.51" height="33.64" rx="3.33" ry="3.33"></rect><rect class="cls-3" x="23.09" y="52.84" width="14.51" height="47.65" rx="3.33" ry="3.33"></rect><rect class="cls-3" x="43.36" y="61.34" width="14.51" height="39.14" rx="3.33" ry="3.33"></rect><rect class="cls-3" x="63.63" y="42.71" width="14.51" height="57.78" rx="3.33" ry="3.33"></rect><path class="cls-2" d="M12.36,96.51c-2.57,0-5.19.16-7.75,0-2.75-.17-2.3-3-2.3-4.95v-23.31c0-.9-.06-1.78.65-2.49.93-.93,2.61-.65,3.81-.65h4.86c1.51,0,2.83.53,2.93,2.26.04.6,0,1.21,0,1.81v20.81c0,2.01.79,6.37-2.21,6.52-1.44.07-1.45,2.32,0,2.25,2.51-.13,4.36-1.96,4.46-4.49.03-.7,0-1.41,0-2.11v-21.6c0-2.6.4-5.63-2.3-7.14-1.33-.74-2.94-.56-4.41-.56-1.75,0-3.5-.02-5.25,0-2.19.02-4.18,1.24-4.69,3.49-.17.75-.11,1.57-.11,2.33v21.31c0,2.71-.62,6.33,2.03,8.04,1.55,1.01,3.62.72,5.38.72h4.89c1.45,0,1.45-2.25,0-2.25Z"></path><path class="cls-2" d="M32.63,96.51h-5.59c-1.82,0-4.31.3-4.46-2.23-.14-2.3,0-4.65,0-6.95v-32.53c0-.73-.11-1.64.18-2.33.83-1.96,4.01-1.35,5.7-1.35h3.36c.98,0,1.95.01,2.59.91.54.75.42,1.75.42,2.62v32.29c0,2.43.13,4.89,0,7.32-.07,1.27-.91,2.19-2.21,2.26-1.44.07-1.45,2.32,0,2.25,2.63-.13,4.42-2.09,4.46-4.7.01-1.07,0-2.15,0-3.23v-29.45c0-2.67.1-5.36,0-8.03s-2.23-4.47-4.91-4.49c-2.27-.02-4.54,0-6.81,0-2.71,0-4.92,1.61-5.04,4.48-.03.78,0,1.57,0,2.36v28.86c0,3.15-.04,6.31,0,9.46.03,2.41,1.6,4.51,4.12,4.72,2.02.17,4.12.02,6.15.02h2.03c1.45,0,1.45-2.25,0-2.25Z"></path><path class="cls-2" d="M52.9,96.51h-4.29c-1.3,0-3.53.4-4.71-.33-1.67-1.04-1.05-4.54-1.05-6.18v-27.03c0-.78-.09-1.62.33-2.31.91-1.48,3.23-1.05,4.71-1.05,1.63,0,3.29-.08,4.92,0,2.88.15,2.3,3.43,2.3,5.43v23.17c0,2.01.12,4.06,0,6.07-.07,1.25-.93,2.17-2.21,2.23-1.44.07-1.45,2.32,0,2.25,2.55-.13,4.37-2,4.46-4.55.03-.84,0-1.69,0-2.53v-28.81c0-1.11.01-2.19-.56-3.21-1.15-2.07-3.21-2.3-5.32-2.3-1.99,0-3.98-.01-5.97,0-2.47.01-4.67,1.49-4.89,4.12-.06.67-.02,1.36-.02,2.04v24.29c0,2.16-.09,4.34,0,6.5.11,2.69,2.18,4.43,4.8,4.46,1.96.02,3.93,0,5.89,0h1.61c1.45,0,1.45-2.25,0-2.25Z"></path><path class="cls-2" d="M73.17,96.51h-6.79c-1.16,0-2.38.03-3.01-1.19-.24-.46-.24-.91-.25-1.4-.04-3.3,0-6.61,0-9.92v-38.92c0-.73-.1-1.54.03-2.27.28-1.57,1.66-1.84,2.98-1.84h4.09c1.95,0,4.99-.52,5.16,2.27s0,5.65,0,8.45v33.81c0,2.89.14,5.81,0,8.69-.06,1.29-.88,2.24-2.21,2.31-1.44.07-1.45,2.32,0,2.25,2.78-.14,4.44-2.24,4.46-4.91,0-1.34,0-2.69,0-4.03v-16.23c0-9.98.05-19.96,0-29.95-.01-2.65-1.68-4.8-4.46-4.91-2.34-.09-4.7,0-7.04,0-1.36,0-2.64.15-3.72,1.09s-1.5,2.12-1.54,3.46c-.03,1.02,0,2.05,0,3.07v46.83c0,1.68.16,3.28,1.54,4.48,1.99,1.73,5.61,1.09,8.04,1.09h2.71c1.45,0,1.45-2.25,0-2.25Z"></path><path class="cls-4" d="M75.43,97.81c2.95,2.58,5.9,5.16,8.85,7.74,1.53,1.34,3.05,2.67,4.58,4.01.68.6,1.37,1.2,2.05,1.8s1.47,1.12,1.96,1.84c1.58,2.26-.43,5.28-3.13,4.57-1.58-.41-2.64-2.16-3.68-3.3l-3.98-4.4c-3.03-3.35-6.07-6.7-9.1-10.05-.97-1.08-2.56.52-1.59,1.59,3.13,3.45,6.26,6.91,9.39,10.36l4.69,5.18c1.18,1.3,2.26,2.54,4.07,2.87,3.14.58,6.07-1.71,6.15-4.92.04-1.51-.61-3-1.69-4.04-1.69-1.61-3.53-3.08-5.28-4.62-3.9-3.41-7.79-6.82-11.69-10.22-1.09-.95-2.68.64-1.59,1.59h0Z"></path><g><circle class="cls-1" cx="64.54" cy="88.63" r="14.38"></circle><path class="cls-4" d="M80.05,88.63c-.08-6.5-4.11-12.32-10.23-14.58s-13.14-.28-17.23,4.7-4.72,12.22-1.39,17.8,9.97,8.52,16.37,7.29c7.23-1.4,12.39-7.93,12.48-15.21.02-1.45-2.23-1.45-2.25,0-.07,5.57-3.56,10.7-8.89,12.52s-11.1.15-14.62-4.11-3.96-10.47-1.14-15.2,8.43-7.29,13.83-6.25c6.26,1.2,10.75,6.7,10.82,13.04.02,1.45,2.27,1.45,2.25,0Z"></path></g><path class="cls-4" d="M54.87,89.01c0-.28.03-.56.07-.84.02-.18-.04.22.02-.12.02-.12.04-.25.07-.37.06-.28.12-.56.2-.84.38-1.37,1.02-2.65,1.99-3.74,1.91-2.13,4.66-3.16,7.33-3.06,1.45.06,1.45-2.19,0-2.25-2.33-.09-4.75.56-6.71,1.84-2.45,1.6-4.18,4.1-4.87,6.93-.19.8-.32,1.62-.34,2.44-.05,1.45,2.2,1.45,2.25,0h0Z"></path><path class="cls-4" d="M73.38,29.75c-.02,1.53-.98,3-2.41,3.49-1.56.54-3.21.11-4.26-1.18-.94-1.15-1.05-2.91-.26-4.23s2.37-2.04,3.83-1.76c1.83.35,3.07,1.87,3.1,3.68.02,1.45,2.27,1.45,2.25,0-.03-2.52-1.59-4.73-3.94-5.62s-5.06-.13-6.61,1.77-1.88,4.72-.58,6.91,3.83,3.25,6.31,2.81c2.79-.5,4.78-3.08,4.82-5.86.02-1.45-2.23-1.45-2.25,0Z"></path><path class="cls-4" d="M52.71,47.95c-.02,1.53-.98,3-2.41,3.49-1.56.54-3.21.11-4.26-1.18-.94-1.15-1.05-2.91-.26-4.23s2.37-2.04,3.83-1.76c1.83.35,3.07,1.87,3.1,3.68.02,1.45,2.27,1.45,2.25,0-.03-2.52-1.59-4.73-3.94-5.62s-5.06-.13-6.61,1.77-1.88,4.72-.58,6.91,3.83,3.25,6.31,2.81c2.79-.5,4.78-3.08,4.82-5.86.02-1.45-2.23-1.45-2.25,0Z"></path><path class="cls-4" d="M32.44,39.86c-.02,1.53-.98,3-2.41,3.49-1.56.54-3.21.11-4.26-1.18-.94-1.15-1.05-2.91-.26-4.23s2.37-2.04,3.83-1.76c1.83.35,3.07,1.87,3.1,3.68.02,1.45,2.27,1.45,2.25,0-.03-2.52-1.59-4.73-3.94-5.62s-5.06-.13-6.61,1.77-1.88,4.72-.58,6.91,3.83,3.25,6.31,2.81c2.79-.5,4.78-3.08,4.82-5.86.02-1.45-2.23-1.45-2.25,0Z"></path><path class="cls-4" d="M12.17,54.72c-.02,1.53-.98,3-2.41,3.49-1.56.54-3.21.11-4.26-1.18-.94-1.15-1.05-2.91-.26-4.23s2.37-2.04,3.83-1.76c1.83.35,3.07,1.87,3.1,3.68.02,1.45,2.27,1.45,2.25,0-.03-2.52-1.59-4.73-3.94-5.62s-5.06-.13-6.61,1.77-1.88,4.72-.58,6.91,3.83,3.25,6.31,2.81c2.79-.5,4.78-3.08,4.82-5.86.02-1.45-2.23-1.45-2.25,0Z"></path><g><path class="cls-4" d="M24.22,41.74c-3.62,2.69-7.25,5.37-10.87,8.06-.51.38-1.02.75-1.53,1.13s-.73.97-.4,1.54c.28.48,1.05.77,1.54.4,3.62-2.69,7.25-5.37,10.87-8.06.51-.38,1.02-.75,1.53-1.13s.73-.97.4-1.54c-.28-.48-1.05-.77-1.54-.4h0Z"></path><path class="cls-4" d="M32.67,43.29c3.33,1.24,6.65,2.49,9.98,3.73l1.42.53c.57.21,1.23-.24,1.38-.79.17-.63-.21-1.17-.79-1.38-3.33-1.24-6.65-2.49-9.98-3.73l-1.42-.53c-.57-.21-1.23.24-1.38.79-.17.63.21,1.17.79,1.38h0Z"></path><path class="cls-4" d="M53.9,46.18c3.84-3.55,7.69-7.11,11.53-10.66.54-.5,1.08-1,1.62-1.5,1.07-.99-.53-2.57-1.59-1.59-3.84,3.55-7.69,7.11-11.53,10.66-.54.5-1.08,1-1.62,1.5-1.07.99.53,2.57,1.59,1.59h0Z"></path></g><path class="cls-4" d="M73.42.06c-4.04,0-8.09-.13-12.13,0-2.03.07-3.84,1.22-4.61,3.12-.46,1.12-.37,2.32-.37,3.5,0,2.62-.57,5.96,1.46,8s5.67,1.46,8.37,1.46l-.97-.56c1.17,2.02,2.34,4.05,3.5,6.07.42.73,1.52.73,1.94,0,1.17-2.02,2.34-4.05,3.5-6.07l-.97.56c2.3,0,4.4-1.34,5.06-3.62.37-1.29.19-2.81.19-4.13s.1-2.62-.04-3.9c-.28-2.55-2.43-4.35-4.94-4.44-1.45-.05-1.45,2.2,0,2.25,1.21.04,2.27.79,2.62,1.97.15.5.11,1.03.11,1.55v4.76c0,1.85-.89,3.21-2.86,3.32-1.27.07-1.86,1.87-2.42,2.83-.73,1.27-1.46,2.53-2.19,3.8h1.94c-1.17-2.02-2.34-4.05-3.5-6.07-.2-.34-.58-.56-.97-.56h-2.92c-.92,0-2.08.16-2.95-.19-2.39-.97-1.72-4.44-1.72-6.47,0-.84-.09-1.75.03-2.59.2-1.43,1.43-2.3,2.81-2.34,1.98-.06,3.98,0,5.96,0h6.06c1.45,0,1.45-2.25,0-2.25Z"></path><path class="cls-4" d="M71.05,10.83c-.07,0-.15,0-.22-.01.24.03-.09-.03-.12-.04-.03,0-.32-.14-.12-.03-.09-.05-.18-.1-.27-.15-.24-.15.09.13-.09-.08-.01-.02-.24-.27-.09-.08-.04-.05-.08-.11-.11-.17-.04-.06-.07-.12-.1-.18.04.11.04.11,0-.02-.03-.1-.06-.2-.08-.3.05.24,0-.09,0-.13,0-.03,0-.06,0-.08,0-.19,0-.38,0-.57,0-.94-.08-1.92.01-2.86-.02.24.03-.08.04-.12,0-.03.14-.32.03-.12.05-.09.1-.18.15-.27.15-.24-.13.09.08-.09.02-.01.27-.24.08-.09.07-.05.14-.09.21-.14.04-.03.25-.12.05-.04.13-.05.26-.09.4-.11-.24.05.09,0,.13,0,.07,0,.15,0,.22.01-.24-.03.09.03.12.04,0,0,.3.11.16.05s.15.09.14.08c.03.02.27.22.1.06.08.07.15.14.22.22-.15-.16.09.15.12.19.16.23-.02-.16.05.11.03.1.06.2.08.3-.04-.2,0,.07,0,.14,0,.15,0,.31,0,.46v1.68c0,.45.04.91-.01,1.36.03-.24-.03.09-.04.12-.02.07-.04.13-.07.2.05-.11.04-.11-.02.01-.04.06-.07.12-.11.17-.07.11-.08.11-.01.01-.04.05-.09.1-.14.15-.18.21.15-.07-.09.08-.04.02-.4.21-.19.12-.1.04-.2.06-.3.09-.13.02-.14.03-.01.01-.07,0-.14.01-.22.01-.61.01-1.12.51-1.12,1.12s.51,1.14,1.12,1.12c1.25-.03,2.43-.69,3.03-1.81.37-.69.41-1.4.41-2.16v-2.08c0-.65.01-1.29-.23-1.91-.5-1.25-1.6-2.07-2.94-2.2-1.23-.12-2.4.5-3.11,1.49-.85,1.19-.6,2.91-.6,4.3,0,.71-.04,1.42.21,2.1.51,1.33,1.78,2.27,3.23,2.27.61,0,1.12-.52,1.12-1.12s-.51-1.12-1.12-1.12Z"></path><path class="cls-4" d="M61.71,13.08h4.37c.59,0,1.15-.52,1.12-1.12s-.49-1.12-1.12-1.12h-4.37c-.59,0-1.15.52-1.12,1.12s.49,1.12,1.12,1.12h0Z"></path><path class="cls-4" d="M62.73,6.95c.63-.54,1.25-1.08,1.88-1.63l.27-.23c.21-.18.33-.53.33-.8s-.12-.61-.33-.8-.5-.34-.8-.33-.56.13-.8.33c-.63.54-1.25,1.08-1.88,1.63l-.27.23c-.21.18-.33.53-.33.8s.12.61.33.8.5.34.8.33.56-.13.8-.33h0Z"></path><path class="cls-4" d="M65.23,11.41c0-2.07,0-4.14,0-6.22,0-.3,0-.6,0-.89,0-.59-.52-1.15-1.12-1.12s-1.13.49-1.12,1.12c0,2.07,0,4.14,0,6.22,0,.3,0,.6,0,.89,0,.59.52,1.15,1.12,1.12s1.13-.49,1.12-1.12h0Z"></path></g></g></svg>