<svg xmlns="http://www.w3.org/2000/svg" id="Capa_2" data-name="Capa 2" viewBox="0 0 119.47 105.54"><defs><style>      .cls-1, .cls-2, .cls-3 {        stroke: #595959;      }      .cls-1, .cls-2, .cls-3, .cls-4 {        stroke-linecap: round;        stroke-linejoin: round;        stroke-width: 2.12px;      }      .cls-1, .cls-4 {        fill: none;      }      .cls-2 {        fill: #fff;      }      .cls-3, .cls-5 {        fill: #00b0ff;      }      .cls-4 {        stroke: #dbdbdb;      }      .cls-5 {        stroke: #00b0ff;        stroke-miterlimit: 10;        stroke-width: .75px;      }    </style></defs><g id="Capa_1-2" data-name="Capa 1"><g><line class="cls-4" x1="30.13" y1="98.7" x2="90.93" y2="37.91"></line><polyline class="cls-4" points="4.45 42.92 25.6 42.92 62.15 6.37 104.11 6.37"></polyline><polyline class="cls-1" points="6.84 17.23 32.57 17.23 75.26 59.92 75.26 98.7 118.41 98.7"></polyline><polyline class="cls-1" points="107.66 20.47 62.75 65.37 6.84 65.37"></polyline><line class="cls-1" x1="28.83" y1="98.7" x2="28.83" y2="65.37"></line><polyline class="cls-1" points="77.48 6.58 77.48 29.73 87.94 40.18"></polyline><line class="cls-1" x1="91.53" y1="98.7" x2="116.69" y2="73.55"></line><circle class="cls-2" cx="73.2" cy="55.88" r="5.78"></circle><circle class="cls-3" cx="28.32" cy="65.37" r="5.78"></circle><circle class="cls-2" cx="6.84" cy="17.23" r="5.78"></circle><circle class="cls-2" cx="42.41" cy="26.95" r="5.78"></circle><circle class="cls-2" cx="28.32" cy="98.7" r="5.78"></circle><ellipse class="cls-2" cx="77.48" cy="6.58" rx="5.78" ry="5.52"></ellipse><circle class="cls-2" cx="87.94" cy="40.18" r="5.78"></circle><circle class="cls-2" cx="93.72" cy="97.28" r="5.78"></circle><path class="cls-5" d="M103.13,69.09c-.21-2.36-1.19-4.37-2.85-5.99-1.97-1.91-4.38-3.01-7.45-2.88-.46.07-1.13-.01-1.8.14-1.83.42-3.43,1.2-4.82,2.46-1.28,1.16-2.21,2.51-2.73,4.12-.49,1.49-.63,3-.48,4.58.25,2.57,1.04,4.94,2.34,7.15,1.86,3.17,4.37,5.79,7.31,8.03.34.26.56.22.82,0,.95-.78,1.94-1.52,2.82-2.37,1.54-1.49,2.9-3.13,4.05-4.93,2.01-3.16,3.14-6.52,2.8-10.31ZM93.06,75c-3.02,0-5.05-2.39-4.92-5-.12-2.81,2.67-4.79,4.98-4.76,2.18.03,5.01,1.9,4.89,4.97-.09,2.52-1.99,4.79-4.95,4.79Z"></path></g></g></svg>