<svg xmlns="http://www.w3.org/2000/svg" id="Capa_2" data-name="Capa 2" viewBox="0 0 117.34 117.28"><defs><style>      .cls-1 {        fill: #fff;      }      .cls-2 {        fill: #5e5e5e;      }      .cls-3 {        fill: #dbdbdb;      }      .cls-4 {        fill: #00b0ff;      }    </style></defs><g id="Capa_1-2" data-name="Capa 1"><g><rect class="cls-1" y="0" width="54.9" height="93.58" rx="9.25" ry="9.25"></rect><path class="cls-3" d="M54.66,12.12c-17.24-.07-34.48-.13-51.72-.2.07-.52.39-2.61,2.14-4.23,1.81-1.68,3.88-1.7,4.37-1.69,13.55.01,27.09.02,40.64.03.31-.01,2.06-.05,3.42,1.38,1.79,1.9,1.19,4.57,1.15,4.71Z"></path><path class="cls-3" d="M45.24,81.08c-14.1.09-28.2.17-42.3.26.07.88.41,4.36,2.25,7.08,1.9,2.81,4.08,2.85,4.59,2.83,11.82-.01,23.64-.03,35.45-.04v-10.13Z"></path><path class="cls-2" d="M2.57,81.3c10.41,0,20.83,0,31.24,0,1.47,0,2.94,0,4.4,0s1.45-2.25,0-2.25c-10.41,0-20.83,0-31.24,0-1.47,0-2.94,0-4.4,0s-1.45,2.25,0,2.25h0Z"></path><path class="cls-2" d="M28.87,86.85c0,.07,0,.14,0,.22,0,.2,0-.07.01-.09-.05.04-.06.27-.08.34-.01.04-.07.15-.07.2,0-.03.12-.24.03-.08-.07.12-.13.24-.21.35-.12.19.14-.13.03-.04-.04.03-.08.09-.11.13-.03.03-.06.06-.1.09l-.05.05c-.09.08-.07.06.07-.05-.09.02-.2.14-.28.19-.04.02-.08.04-.12.06-.19.11.25-.07-.02,0-.11.03-.22.07-.33.09-.18.04-.06-.05.05,0-.04-.02-.14.01-.18.01-.12,0-.24,0-.36,0-.16,0,.29.06.05,0-.07-.02-.14-.03-.2-.05s-.13-.04-.2-.06c-.14-.04.03-.04.08.03-.03-.06-.23-.12-.3-.16-.05-.03-.09-.07-.14-.1-.13-.07.21.19.04.03-.05-.05-.23-.28-.28-.29.08.02.13.19.05.07-.04-.06-.08-.11-.11-.17-.02-.04-.05-.08-.07-.12l-.03-.06c-.05-.11-.04-.08.03.08,0-.09-.08-.24-.11-.33-.01-.05-.02-.09-.03-.14-.05-.22.02.27,0-.02,0-.11,0-.22,0-.33s.08-.25,0,.02c.01-.04.02-.09.03-.14.03-.11.06-.22.1-.33.07-.23-.12.23,0,.02.03-.06.06-.12.1-.18.03-.05.06-.09.09-.14.1-.16.07.02-.03.04.05-.01.19-.21.23-.25.04-.03.2-.12.04-.04-.17.09.02-.01.05-.03.07-.05.33-.14.36-.2,0,.02-.26.09-.08.03.07-.02.13-.05.2-.06.04-.01.09-.02.14-.03.03,0,.26-.03.06-.02s.03,0,.06,0c.06,0,.12,0,.18,0s.12,0,.18,0c.24,0-.23-.05-.02,0,.14.03.27.07.4.11.22.07-.17-.1-.05-.02.06.04.14.07.21.11.04.02.08.05.11.07.04.03.07.05.11.08-.14-.11-.16-.12-.07-.05.08.08.16.16.24.24.17.17-.14-.22,0-.02.04.06.08.11.11.17s.06.12.1.18c.1.18-.07-.24,0-.02.04.13.08.27.11.4s-.06.02,0-.09c-.02.06.01.22.02.29,0,.59.51,1.15,1.12,1.12s1.13-.49,1.12-1.12c-.02-1.59-1.01-2.95-2.49-3.51-1.39-.52-3.1-.06-4.05,1.08-1,1.22-1.22,2.95-.39,4.33s2.41,2.02,3.97,1.74c1.72-.31,2.94-1.94,2.96-3.64,0-.59-.52-1.15-1.12-1.12s-1.12.49-1.12,1.12Z"></path><path class="cls-2" d="M52.63,10.8H2.17c-1.45,0-1.45,2.25,0,2.25h50.45c1.45,0,1.45-2.25,0-2.25h0Z"></path><path class="cls-2" d="M24.37,8c1.77,0,3.54,0,5.31,0h.75c.59,0,1.15-.52,1.12-1.12s-.49-1.12-1.12-1.12c-1.77,0-3.54,0-5.31,0h-.75c-.59,0-1.15.52-1.12,1.12s.49,1.12,1.12,1.12h0Z"></path><g><path class="cls-4" d="M12.18,22.47c-1.37,2.19-2.75,4.38-4.12,6.57l1.77-.23c-.94-.86-1.89-1.72-2.83-2.58-.44-.4-1.17-.46-1.59,0-.4.43-.47,1.17,0,1.59.94.86,1.89,1.72,2.83,2.58.55.5,1.37.41,1.77-.23,1.37-2.19,2.75-4.38,4.12-6.57.31-.5.12-1.26-.4-1.54-.55-.29-1.2-.13-1.54.4h0Z"></path><path class="cls-4" d="M18.32,27.45h29.16c1.45,0,1.45-2.25,0-2.25h-29.16c-1.45,0-1.45,2.25,0,2.25h0Z"></path></g><g><path class="cls-4" d="M12.18,42.46c-1.37,2.19-2.75,4.38-4.12,6.57l1.77-.23c-.94-.86-1.89-1.72-2.83-2.58-.44-.4-1.17-.46-1.59,0-.4.43-.47,1.17,0,1.59.94.86,1.89,1.72,2.83,2.58.55.5,1.37.41,1.77-.23,1.37-2.19,2.75-4.38,4.12-6.57.31-.5.12-1.26-.4-1.54-.55-.29-1.2-.13-1.54.4h0Z"></path><path class="cls-4" d="M18.32,47.44h29.16c1.45,0,1.45-2.25,0-2.25h-29.16c-1.45,0-1.45,2.25,0,2.25h0Z"></path></g><g><path class="cls-4" d="M12.18,62.46c-1.37,2.19-2.75,4.38-4.12,6.57l1.77-.23c-.94-.86-1.89-1.72-2.83-2.58-.44-.4-1.17-.46-1.59,0-.4.43-.47,1.17,0,1.59.94.86,1.89,1.72,2.83,2.58.55.5,1.37.41,1.77-.23,1.37-2.19,2.75-4.38,4.12-6.57.31-.5.12-1.26-.4-1.54-.55-.29-1.2-.13-1.54.4h0Z"></path><path class="cls-4" d="M18.32,67.43h29.16c1.45,0,1.45-2.25,0-2.25h-29.16c-1.45,0-1.45,2.25,0,2.25h0Z"></path></g><path class="cls-2" d="M37.8,92.45H13.17c-2.76,0-5.72.47-7.85-1.68-2.34-2.36-1.89-5.68-1.89-8.71-.03-16.63-.06-33.26-.09-49.89,0-4.16-.01-8.31-.02-12.47,0-2.08,0-4.16-.01-6.24,0-1.57-.17-3.23.14-4.78.57-2.85,2.61-5.11,5.45-5.77,1.35-.32,2.92-.08,4.31-.08h31.1c2.66,0,5.01.69,6.31,3.3.57,1.14.73,2.34.73,3.6,0,2.07,0,4.15,0,6.22,0,16.59,0,33.18,0,49.77v6.22c0,1.45,2.25,1.45,2.25,0V11.98c0-1.51.09-3.03-.19-4.52-.58-3.06-2.78-5.65-5.78-6.54-1.02-.3-2.02-.32-3.07-.32H11.22c-2.58,0-4.69.37-6.75,2.08C1.96,4.75,1.04,7.83,1.05,10.98c0,4.49.02,8.98.02,13.47.03,17.79.06,35.58.09,53.38,0,2.24,0,4.49.01,6.73,0,1.29-.01,2.55.31,3.81.77,2.99,3.1,5.49,6.16,6.15,1.25.27,2.53.19,3.8.19h26.35c1.45,0,1.45-2.25,0-2.25h0Z"></path><polygon class="cls-3" points="100.22 81.65 100.22 46.32 66.2 46.32 66.2 81.65 46.22 81.65 46.22 117.28 117.34 117.28 117.34 81.65 100.22 81.65"></polygon><g><path class="cls-2" d="M78.53,113.92h34.95c.61,0,1.12-.52,1.12-1.12v-34.95c0-.61-.52-1.12-1.12-1.12h-34.95c-.61,0-1.12.52-1.12,1.12v34.95c0,1.45,2.25,1.45,2.25,0v-34.95l-1.12,1.12h34.95l-1.12-1.12v34.95l1.12-1.12h-34.95c-1.45,0-1.45,2.25,0,2.25Z"></path><path class="cls-2" d="M43.59,113.92h34.95c.61,0,1.12-.52,1.12-1.12v-34.95c0-.61-.52-1.12-1.12-1.12h-34.95c-.61,0-1.12.52-1.12,1.12v34.95c0,1.45,2.25,1.45,2.25,0v-34.95l-1.12,1.12h34.95l-1.12-1.12v34.95l1.12-1.12h-34.95c-1.45,0-1.45,2.25,0,2.25Z"></path><path class="cls-2" d="M61.06,78.48h34.95c.61,0,1.12-.52,1.12-1.12v-34.95c0-.61-.52-1.12-1.12-1.12h-34.95c-.61,0-1.12.52-1.12,1.12v34.95c0,1.45,2.25,1.45,2.25,0v-34.95l-1.12,1.12h34.95l-1.12-1.12v34.95l1.12-1.12h-34.95c-1.45,0-1.45,2.25,0,2.25Z"></path></g><g><rect class="cls-1" x="74.92" y="42.47" width="7.23" height="8.6"></rect><path class="cls-2" d="M74.92,52.19h7.23c.61,0,1.12-.52,1.12-1.12v-8.6c0-.61-.52-1.12-1.12-1.12h-7.23c-.61,0-1.12.52-1.12,1.12v8.6c0,1.45,2.25,1.45,2.25,0v-8.6l-1.12,1.12h7.23l-1.12-1.12v8.6l1.12-1.12h-7.23c-1.45,0-1.45,2.25,0,2.25Z"></path></g><g><rect class="cls-1" x="57.44" y="78.17" width="7.23" height="8.6"></rect><path class="cls-2" d="M57.44,87.9h7.23c.61,0,1.12-.52,1.12-1.12v-8.6c0-.61-.52-1.12-1.12-1.12h-7.23c-.61,0-1.12.52-1.12,1.12v8.6c0,1.45,2.25,1.45,2.25,0v-8.6l-1.12,1.12h7.23l-1.12-1.12v8.6l1.12-1.12h-7.23c-1.45,0-1.45,2.25,0,2.25Z"></path></g><g><rect class="cls-1" x="92.39" y="78.17" width="7.23" height="8.6"></rect><path class="cls-2" d="M92.39,87.9h7.23c.61,0,1.12-.52,1.12-1.12v-8.6c0-.61-.52-1.12-1.12-1.12h-7.23c-.61,0-1.12.52-1.12,1.12v8.6c0,1.45,2.25,1.45,2.25,0v-8.6l-1.12,1.12h7.23l-1.12-1.12v8.6l1.12-1.12h-7.23c-1.45,0-1.45,2.25,0,2.25Z"></path></g><path class="cls-4" d="M87.11,62.72c0,.1,0,.2-.01.3-.01.22,0,.04,0,0-.03.16-.06.32-.11.47-.03.09-.06.18-.1.27.02-.04.1-.19,0,0-.09.17-.18.33-.29.48-.15.23.1-.07-.03.03-.06.04-.11.12-.16.17-.04.04-.09.09-.13.13-.03.03-.27.22-.06.06-.12.09-.26.18-.39.26-.05.03-.11.06-.17.09-.12.05-.11.05,0,0-.04.02-.09.03-.13.05-.15.05-.3.1-.46.13-.06.01-.28.04-.04.01-.08,0-.16.01-.25.02-.17,0-.33,0-.5-.01-.19,0,.26.06-.04,0-.09-.02-.19-.04-.28-.07s-.18-.06-.27-.09c-.05-.02-.18-.09,0,0-.14-.07-.28-.14-.41-.23-.07-.04-.13-.09-.19-.13-.14-.09.17.17-.03-.03-.13-.13-.26-.27-.39-.4.14.15.04.05,0,0-.05-.08-.11-.15-.15-.24-.03-.05-.06-.11-.09-.16-.02-.03-.14-.32-.05-.07-.06-.15-.11-.3-.15-.45-.02-.06-.03-.13-.04-.19-.02-.13-.02-.13,0,0,0-.05,0-.1-.01-.15-.01-.15-.01-.3,0-.45,0-.04.05-.36,0-.09.01-.06.02-.13.04-.19.03-.16.09-.31.14-.46.09-.28-.11.18.04-.08.05-.08.09-.17.14-.25.04-.07.08-.13.13-.2.03-.05.17-.2.02-.03.1-.12.21-.23.32-.34,0,0,.23-.2.1-.09s.11-.08.11-.08c.16-.11.32-.19.49-.28-.04.02-.21.07,0,0,.09-.03.18-.06.27-.09.06-.02.12-.03.19-.05,0,0,.31-.06.14-.03s.15,0,.14,0c.08,0,.17,0,.25,0s.17,0,.25.01c.26,0-.14-.05.09.01.19.05.37.09.55.15.27.09-.09-.08.04.02.08.06.2.1.29.16.05.03.11.07.16.1.05.03.1.07.15.11-.1-.08-.11-.08-.01,0,.11.11.22.22.33.33.21.21-.11-.18.06.07.05.08.11.15.15.24s.09.17.14.25c.12.2-.04-.16.04.08.06.18.11.37.15.55.01.05.02.22,0,0,.01.13.02.26.02.4,0,.59.51,1.15,1.12,1.12s1.13-.49,1.12-1.12c-.03-2-1.26-3.73-3.13-4.43s-3.96-.09-5.17,1.38-1.51,3.72-.47,5.46,3.03,2.56,4.99,2.21c2.19-.39,3.74-2.44,3.77-4.62,0-.59-.52-1.15-1.12-1.12s-1.12.49-1.12,1.12Z"></path><path class="cls-4" d="M93.16,91.26c0,.1,0,.2-.01.3-.01.22,0,.04,0,0-.03.16-.06.32-.11.47-.03.09-.06.18-.1.27.02-.04.1-.19,0,0-.09.17-.18.33-.29.48-.15.23.1-.07-.03.03-.06.04-.11.12-.16.17-.04.04-.09.09-.13.13-.03.03-.27.22-.06.06-.12.09-.26.18-.39.26-.05.03-.11.06-.17.09-.12.05-.11.05,0,0-.04.02-.09.03-.13.05-.15.05-.3.1-.46.13-.06.01-.28.04-.04.01-.08,0-.16.01-.25.02-.17,0-.33,0-.5-.01-.19,0,.26.06-.04,0-.09-.02-.19-.04-.28-.07s-.18-.06-.27-.09c-.05-.02-.18-.09,0,0-.14-.07-.28-.14-.41-.23-.07-.04-.13-.09-.19-.13-.14-.09.17.17-.03-.03-.13-.13-.26-.27-.39-.4.14.15.04.05,0,0-.05-.08-.11-.15-.15-.24-.03-.05-.06-.11-.09-.16-.02-.03-.14-.32-.05-.07-.06-.15-.11-.3-.15-.45-.02-.06-.03-.13-.04-.19-.02-.13-.02-.13,0,0,0-.05,0-.1-.01-.15-.01-.15-.01-.3,0-.45,0-.04.05-.36,0-.09.01-.06.02-.13.04-.19.03-.16.09-.31.14-.46.09-.28-.11.18.04-.08.05-.08.09-.17.14-.25.04-.07.08-.13.13-.2.03-.05.17-.2.02-.03.1-.12.21-.23.32-.34,0,0,.23-.2.1-.09s.11-.08.11-.08c.16-.11.32-.19.49-.28-.04.02-.21.07,0,0,.09-.03.18-.06.27-.09.06-.02.12-.03.19-.05,0,0,.31-.06.14-.03s.15,0,.14,0c.08,0,.17,0,.25,0s.17,0,.25.01c.26,0-.14-.05.09.01.19.05.37.09.55.15.27.09-.09-.08.04.02.08.06.2.1.29.16.05.03.11.07.16.1.05.03.1.07.15.11-.1-.08-.11-.08-.01,0,.11.11.22.22.33.33.21.21-.11-.18.06.07.05.08.11.15.15.24s.09.17.14.25c.12.2-.04-.16.04.08.06.18.11.37.15.55.01.05.02.22,0,0,.01.13.02.26.02.4,0,.59.51,1.15,1.12,1.12s1.13-.49,1.12-1.12c-.03-2-1.26-3.73-3.13-4.43s-3.96-.09-5.17,1.38-1.51,3.72-.47,5.46,3.03,2.56,4.99,2.21c2.19-.39,3.74-2.44,3.77-4.62,0-.59-.52-1.15-1.12-1.12s-1.12.49-1.12,1.12Z"></path><path class="cls-4" d="M71.13,86.06c0,.1,0,.2-.01.3-.01.22,0,.04,0,0-.03.16-.06.32-.11.47-.03.09-.06.18-.1.27.02-.04.1-.19,0,0-.09.17-.18.33-.29.48-.15.23.1-.07-.03.03-.06.04-.11.12-.16.17-.04.04-.09.09-.13.13-.03.03-.27.22-.06.06-.12.09-.26.18-.39.26-.05.03-.11.06-.17.09-.12.05-.11.05,0,0-.04.02-.09.03-.13.05-.15.05-.3.1-.46.13-.06.01-.28.04-.04.01-.08,0-.16.01-.25.02-.17,0-.33,0-.5-.01-.19,0,.26.06-.04,0-.09-.02-.19-.04-.28-.07s-.18-.06-.27-.09c-.05-.02-.18-.09,0,0-.14-.07-.28-.14-.41-.23-.07-.04-.13-.09-.19-.13-.14-.09.17.17-.03-.03-.13-.13-.26-.27-.39-.4.14.15.04.05,0,0-.05-.08-.11-.15-.15-.24-.03-.05-.06-.11-.09-.16-.02-.03-.14-.32-.05-.07-.06-.15-.11-.3-.15-.45-.02-.06-.03-.13-.04-.19-.02-.13-.02-.13,0,0,0-.05,0-.1-.01-.15-.01-.15-.01-.3,0-.45,0-.04.05-.36,0-.09.01-.06.02-.13.04-.19.03-.16.09-.31.14-.46.09-.28-.11.18.04-.08.05-.08.09-.17.14-.25.04-.07.08-.13.13-.2.03-.05.17-.2.02-.03.1-.12.21-.23.32-.34,0,0,.23-.2.1-.09s.11-.08.11-.08c.16-.11.32-.19.49-.28-.04.02-.21.07,0,0,.09-.03.18-.06.27-.09.06-.02.12-.03.19-.05,0,0,.31-.06.14-.03s.15,0,.14,0c.08,0,.17,0,.25,0s.17,0,.25.01c.26,0-.14-.05.09.01.19.05.37.09.55.15.27.09-.09-.08.04.02.08.06.2.1.29.16.05.03.11.07.16.1.05.03.1.07.15.11-.1-.08-.11-.08-.01,0,.11.11.22.22.33.33.21.21-.11-.18.06.07.05.08.11.15.15.24s.09.17.14.25c.12.2-.04-.16.04.08.06.18.11.37.15.55.01.05.02.22,0,0,.01.13.02.26.02.4,0,.59.51,1.15,1.12,1.12s1.13-.49,1.12-1.12c-.03-2-1.26-3.73-3.13-4.43s-3.96-.09-5.17,1.38-1.51,3.72-.47,5.46,3.03,2.56,4.99,2.21c2.19-.39,3.74-2.44,3.77-4.62,0-.59-.52-1.15-1.12-1.12s-1.12.49-1.12,1.12Z"></path></g></g></svg>