<?xml version="1.0" encoding="UTF-8"?>
<svg id="Capa_2" data-name="Capa 2" xmlns="http://www.w3.org/2000/svg" viewBox="0 0 103.75 72.4">
  <defs>
    <style>
      .cls-1 {
        fill: #fff;
      }

      .cls-2 {
        fill: #5e5e5e;
      }
    </style>
  </defs>
  <g id="Capa_1-2" data-name="Capa 1">
    <g>
      <path class="cls-1" d="M95.24,36.7c-2.52-10.09-8.32-19.32-16.43-25.85C70.56,4.2,60.38.35,49.77.02,28.98-.62,9.79,12.61,2.77,32.13c-4.54,12.61-3.4,26.79,2.73,38.65,1.33,2.57,5.21.3,3.89-2.27-5.07-9.81-6.26-21.35-3.29-31.99,2.47-8.85,7.74-16.7,14.88-22.47s16.12-9.1,25.23-9.51c9.67-.44,19.21,2.3,27.17,7.81,8.74,6.04,14.96,15.26,17.53,25.54.7,2.81,5.04,1.62,4.34-1.2h0Z"/>
      <path class="cls-1" d="M90.87,71.28c3.44-6.45,5.37-13.52,5.73-20.81.06-1.21-1.08-2.25-2.25-2.25-1.27,0-2.19,1.03-2.25,2.25-.32,6.48-2.07,12.82-5.12,18.54-1.36,2.55,2.52,4.83,3.89,2.27h0Z"/>
      <g>
        <path class="cls-2" d="M56.65,45.27c-.16-.37,0,.02.04.1.05.12.09.24.13.37.07.21.14.43.19.64.07.25.13.51.18.77.02.11.04.22.06.34.02.17.02.15,0-.06,0,.06.01.11.02.17.05.51.07,1.02.05,1.52-.01.26-.03.51-.06.77-.03.35.05-.25-.01.07-.03.15-.05.31-.08.46-.15.77.22,1.66,1.05,1.85.75.17,1.68-.22,1.85-1.05.25-1.23.34-2.49.2-3.74-.15-1.31-.49-2.51-1.01-3.73-.14-.32-.58-.6-.9-.69-.36-.1-.84-.05-1.16.15s-.6.51-.69.9c-.1.42-.02.76.15,1.16h0Z"/>
        <path class="cls-1" d="M57.94,44.51c-1.62-3.71-5.32-6.31-9.63-6.31-5.8,0-10.5,4.7-10.5,10.5s4.7,10.5,10.5,10.5c5.07,0,9.3-3.6,10.29-8.38"/>
        <g>
          <path class="cls-1" d="M57.94,44.51l43.66-2.05c.75-.04.87,1.06.13,1.19l-43.13,7.17"/>
          <path class="cls-1" d="M57.94,46.01c4.91-.23,9.82-.46,14.73-.69,7.86-.37,15.72-.74,23.58-1.11l3.57-.17c.5-.02,1.22.08,1.7-.08.61-.2.36-1.69-.27-1.75-.18-.02-.42.07-.6.1l-2.68.45c-7.37,1.23-14.75,2.45-22.12,3.68l-11.23,1.87c-2.03.34-4.1.58-6.11,1.02-.1.02-.2.03-.31.05-1.9.32-1.09,3.21.8,2.89,5.16-.86,10.33-1.72,15.49-2.58l23.48-3.9,3.19-.53c.68-.11,1.31-.15,1.87-.64,1.65-1.42.22-3.64-1.63-3.65-.71,0-1.43.07-2.15.1l-22.46,1.05c-6.18.29-12.37.46-18.54.87-.1,0-.21,0-.31.01-1.92.09-1.93,3.09,0,3h0Z"/>
        </g>
      </g>
    </g>
  </g>
</svg>