<?xml version="1.0" encoding="UTF-8"?>
<svg id="Capa_2" data-name="Capa 2" xmlns="http://www.w3.org/2000/svg" viewBox="0 0 101.22 100">
  <defs>
    <style>
      .cls-1 {
        fill: #00b0ff;
      }
    </style>
  </defs>
  <g id="Capa_1-2" data-name="Capa 1">
    <path class="cls-1" d="M101.22,57.91v27.28c-.57,1.69-1.49,2.91-3.17,3.77l-20.54,10.46c-1.48.75-3.09.8-4.58.04l-22.31-11.36-8.3,4.21c-.8.41-1.7.06-2.04-.65-.33-.7-.1-1.53.64-1.95l8.21-4.21-.02-26.52-21.59,11,.02,26.53,7.08-3.58c.79-.39,1.67-.06,2.01.64.31.63.13,1.59-.59,1.96l-7.74,3.94c-1.45.74-3.15.69-4.6-.05l-20.79-10.6c-1.64-.84-2.88-2.48-2.89-4.41l-.02-25.29c.02-1.92.79-3.86,2.55-4.8l22.01-11.84v-25.84c0-2.11,1.06-3.85,2.87-4.83L48.22.63c1.54-.83,3.25-.84,4.79,0l20.91,11.24c1.68.9,2.72,2.65,2.72,4.54v5.51c.01.93-.85,1.51-1.61,1.43-.77-.08-1.37-.71-1.32-1.59l-.09-5.07-21.53,10.97.02,26.39,8.44-4.52c4.38-2.18,8.76-4.36,13.14-6.54v-14.8c.1-.75.74-1.31,1.47-1.32.77,0,1.44.61,1.49,1.4v14.84c6.13,3.42,10.44,4.99,13.16,6.41.61.32,4.47,2.4,8.38,4.5,1.64.88,2.57,2.18,3.03,3.9ZM71.93,14.17L51.69,3.27c-.77-.4-1.53-.37-2.28.08l-20.11,10.83,21.33,10.9,21.31-10.9ZM49.11,54.02v-26.41s-21.57-10.97-21.57-10.97v25.81s21.57,11.58,21.57,11.58ZM47.39,56.5l-21.33-11.49-21.33,11.49,21.33,10.89,21.32-10.89ZM96.47,56.5l-8.08-4.39c-4.41-2.31-8.82-4.62-13.23-6.93-4.4,2.31-8.81,4.62-13.21,6.93l-8.1,4.39,21.33,10.88,21.29-10.89ZM24.56,96.49l.02-26.54L3,58.97l-.03,24.81c-.07,1.14.43,1.95,1.4,2.45l20.18,10.26ZM73.68,96.5v-26.55s-21.56-10.98-21.56-10.98v26.56s21.56,10.97,21.56,10.97ZM96.78,86.27c1.01-.48,1.46-1.23,1.47-2.28v-25.02s-21.6,11-21.6,11v26.54s20.13-10.24,20.13-10.24Z"/>
  </g>
</svg>