<?xml version="1.0" encoding="UTF-8"?>
<svg id="Capa_2" data-name="Capa 2" xmlns="http://www.w3.org/2000/svg" viewBox="0 0 61.28 70.47">
  <defs>
    <style>
      .cls-1 {
        fill: #00b0ff;
      }
    </style>
  </defs>
  <g id="Capa_6" data-name="Capa 6">
    <path class="cls-1" d="M44.64,0h-28C7.49,0,0,7.49,0,16.64v28c0,9.15,7.49,16.64,16.64,16.64h1.05c-2.92,3.06-5.84,6.13-8.75,9.19h44.6c-2.92-3.07-5.84-6.13-8.75-9.2,9.09-.08,16.5-7.53,16.5-16.63v-28C61.28,7.49,53.79,0,44.64,0ZM23.57,49.19c0-4.32,3.51-7.83,7.83-7.83s7.83,3.51,7.83,7.83-3.51,7.83-7.83,7.83-7.83-3.51-7.83-7.83ZM54.89,33.02c0,1.03-.84,1.87-1.87,1.87H9.79c-1.03,0-1.87-.84-1.87-1.87V15.83c0-1.03.84-1.87,1.87-1.87h43.23c1.03,0,1.87.84,1.87,1.87v17.19Z"/>
  </g>
</svg>