<svg xmlns="http://www.w3.org/2000/svg" id="Capa_2" data-name="Capa 2" viewBox="0 0 59.83 49.62"><defs><style>      .cls-1 {        fill: #fff;      }    </style></defs><g id="Capa_6" data-name="Capa 6"><path class="cls-1" d="M5.46,0H1.5C.69,0,0,.69,0,1.5v46.62c0,.81.69,1.5,1.5,1.5h56.83c.81,0,1.5-.69,1.5-1.5,0-15.54-.01-31.08-.02-46.62,0-.81-.69-1.5-1.5-1.5H10.33c-1.93,0-1.93,3,0,3h47.98l-1.5-1.5c0,15.54.01,31.08.02,46.62l1.5-1.5H1.5l1.5,1.5V1.5l-1.5,1.5h3.96c1.93,0,1.93-3,0-3h0Z"></path><path class="cls-1" d="M51.73,6.88c.02,12.01.04,24.03.06,36.04l1.5-1.5H6.88l1.5,1.5c.08-12.01.16-24.03.24-36.04l-1.5,1.5h46.11c1.93,0,1.93-3,0-3H7.12c-.81,0-1.49.69-1.5,1.5-.08,12.01-.16,24.03-.24,36.04,0,.81.69,1.5,1.5,1.5h46.4c.81,0,1.5-.69,1.5-1.5-.02-12.01-.04-24.03-.06-36.04,0-1.93-3-1.93-3,0Z"></path><path class="cls-1" d="M27.04,25.23c8.87-3.06,17.73-6.12,26.6-9.17,1.81-.63,1.03-3.52-.8-2.89-8.87,3.06-17.73,6.12-26.6,9.17-1.81.63-1.03,3.52.8,2.89h0Z"></path><path class="cls-1" d="M41.59,17.93c-4.17-4.04-8.35-8.07-12.52-12.11-1.39-1.34-3.51.78-2.12,2.12,4.17,4.04,8.35,8.07,12.52,12.11,1.39,1.34,3.51-.78,2.12-2.12h0Z"></path><path class="cls-1" d="M54.04,41.63c-10.97-7.91-21.95-15.82-32.92-23.73-1.57-1.13-3.07,1.47-1.51,2.59,10.97,7.91,21.95,15.82,32.92,23.73,1.57,1.13,3.07-1.47,1.51-2.59h0Z"></path><path class="cls-1" d="M15.79,43.98c5.75-5.12,11.5-10.24,17.25-15.36,1.44-1.29-.68-3.4-2.12-2.12-5.75,5.12-11.5,10.24-17.25,15.36-1.44,1.29.68,3.4,2.12,2.12h0Z"></path><path class="cls-1" d="M40.99,33.72c-2.99,2.71-5.98,5.43-8.98,8.14-.58.53-.58,1.59,0,2.12.62.57,1.5.56,2.12,0,2.99-2.71,5.98-5.43,8.98-8.14.58-.53.58-1.59,0-2.12-.62-.57-1.5-.56-2.12,0h0Z"></path><path class="cls-1" d="M7.74,29.35c2.93-2.16,5.85-4.33,8.78-6.49.63-.47,1.01-1.32.54-2.05-.4-.62-1.38-1.04-2.05-.54-2.93,2.16-5.85,4.33-8.78,6.49-.63.47-1.01,1.32-.54,2.05.4.62,1.38,1.04,2.05.54h0Z"></path><path class="cls-1" d="M24.02,11.98c-.42-3.82-3.62-7.87-8.14-7.95-4.87-.1-8.42,4.47-8.5,8.62-.06,2.8,1.48,4.88,2.12,5.65,2.27,2.67,4.54,5.34,6.81,8,1.98-2.68,3.96-5.36,5.94-8.04.54-.75,2.11-3.16,1.77-6.28ZM15.72,16.15c-2.29,0-4.15-1.86-4.15-4.15s1.86-4.15,4.15-4.15,4.15,1.86,4.15,4.15-1.86,4.15-4.15,4.15Z"></path></g></svg>