<svg xmlns="http://www.w3.org/2000/svg" id="Capa_2" data-name="Capa 2" viewBox="0 0 55.36 55.29"><defs><style>      .cls-1 {        fill: #fff;      }      .cls-2 {        fill: none;        stroke: #fff;        stroke-miterlimit: 10;      }    </style></defs><g id="Capa_6" data-name="Capa 6"><path class="cls-1" d="M29.16,47.82c2.94,0,6.54.61,8.2-2.49.69-1.29.53-2.78.53-4.19v-6.33c0-1.93.15-3.92,0-5.85-.11-1.39-.84-2.68-1.94-3.52s-2.32-1.05-3.67-1.04c-2.14,0-4.29,0-6.43,0H8.03c-1.51,0-3.21-.24-4.68.21s-2.56,1.51-3.03,2.9c-.52,1.52-.24,3.38-.24,4.95v5.98c0,1.78-.19,3.67,0,5.44s1.37,3.16,3.03,3.71,3.5.23,5.14.23h13.83l-1.06-.44c2.41,2.5,4.82,4.99,7.23,7.49.89.92,2.59.24,2.56-1.06-.06-2.5-.11-4.99-.17-7.49-.04-1.93-3.04-1.93-3,0,.06,2.5.11,4.99.17,7.49l2.56-1.06c-1.26-1.31-2.53-2.62-3.79-3.92-.69-.71-1.38-1.43-2.07-2.14-.59-.61-1.2-1.55-2.04-1.81-.69-.22-1.65-.05-2.38-.05H6.28c-.49,0-.99-.02-1.48,0h-.49c.23.04.27.04.12.01-.59-.12-1.1-.38-1.31-1-.14-.42-.04-.98-.04-1.42.02-1,0-1.99,0-2.99v-5.48c0-1.58-.15-3.23-.02-4.8.11-1.4,1.04-1.75,2-1.76,3.63-.02,7.26,0,10.89,0h11.38c1.73,0,3.46,0,5.2,0,1.12,0,2.14.48,2.37,1.67.15.79,0,1.76,0,2.57v9.01c0,1.33.48,3.41-1.08,4.06-.43.18-.78.11-1.41.11h-3.24c-1.93,0-1.93,3,0,3Z"></path><path class="cls-1" d="M26.21,7.47c-2.94,0-6.54-.61-8.2,2.49-.69,1.29-.53,2.78-.53,4.19v6.33c0,1.93-.15,3.92,0,5.85.11,1.39.84,2.68,1.94,3.52s2.32,1.05,3.67,1.04c2.14,0,4.29,0,6.43,0h17.82c1.51,0,3.21.24,4.68-.21s2.56-1.51,3.03-2.9c.52-1.52.24-3.38.24-4.95v-5.98c0-1.78.19-3.67,0-5.44s-1.37-3.16-3.03-3.71-3.5-.23-5.14-.23h-13.83l1.06.44c-2.41-2.5-4.82-4.99-7.23-7.49-.89-.92-2.59-.24-2.56,1.06.06,2.5.11,4.99.17,7.49.04,1.93,3.04,1.93,3,0-.06-2.5-.11-4.99-.17-7.49l-2.56,1.06c1.26,1.31,2.53,2.62,3.79,3.92.69.71,1.38,1.43,2.07,2.14.59.61,1.2,1.55,2.04,1.81.69.22,1.65.05,2.38.05h13.83c.49,0,.99.02,1.48,0h.49c-.23-.04-.27-.04-.12-.01.59.12,1.1.38,1.31,1,.14.42.04.98.04,1.42-.02,1,0,1.99,0,2.99v5.48c0,1.58.15,3.23.02,4.8-.11,1.4-1.04,1.75-2,1.76-3.63.02-7.26,0-10.89,0h-11.38c-1.73,0-3.46,0-5.2,0-1.12,0-2.14-.48-2.37-1.67-.15-.79,0-1.76,0-2.57v-9.01c0-1.33-.48-3.41,1.08-4.06.43-.18.78-.11,1.41-.11h3.24c1.93,0,1.93-3,0-3Z"></path><circle class="cls-2" cx="11.89" cy="36.58" r=".49"></circle><circle class="cls-2" cx="18.9" cy="36.58" r=".49"></circle><circle class="cls-2" cx="24.95" cy="36.58" r=".49"></circle><circle class="cls-2" cx="28.48" cy="20.14" r=".49"></circle><circle class="cls-2" cx="35.49" cy="20.14" r=".49"></circle><circle class="cls-2" cx="41.53" cy="20.14" r=".49"></circle></g></svg>