<svg xmlns="http://www.w3.org/2000/svg" id="Capa_2" data-name="Capa 2" viewBox="0 0 57.54 55.6"><defs><style>      .cls-1 {        fill: #fff;      }    </style></defs><g id="Capa_7" data-name="Capa 7"><g><path class="cls-1" d="M19.78,13.39c-1.33-2.79-3.16-6.16-5.78-7.9-2.81-1.87-5.97-.65-8.14,1.55C1.76,11.22-.21,17.24.02,23.04c.25,6.3,3.62,11.3,7.38,16.09,4.11,5.23,8.29,10.7,14.39,13.72,5.07,2.51,11.14,3.55,16.67,2.05,2.42-.66,4.77-1.77,6.58-3.52,2.11-2.03,3.91-5.46,1.96-8.19-1.05-1.47-2.58-2.69-3.93-3.87-.95-.82-1.92-1.63-2.96-2.33s-2.04-1.2-3.25-1.29c-3.12-.22-5.72,1.38-7.89,3.43-.67.63-1.33,1.25-2.31,1.2-1.21-.06-2.38-.91-3.27-1.65-1.05-.87-1.99-1.88-2.88-2.91-.37-.43-.72-.87-1.07-1.31-.13-.16-.26-.33-.39-.49-.21-.26.13.18-.05-.07-1.26-1.67-2.48-3.47-3.23-5.43-.36-.92-.77-2.1-.5-3.11.24-.86,1.1-1.5,1.76-2.12,1.7-1.6,4.16-3.07,4.07-5.7-.05-1.46-.7-2.86-1.3-4.16-.8-1.75-3.39-.23-2.59,1.51.38.83,1.01,2.23.89,2.97-.1.67-1.02,1.26-1.66,1.84-1.62,1.46-3.76,3.03-4.15,5.31-.67,3.92,2.29,8.03,4.56,10.95,2.5,3.21,6.57,8.38,11.27,7.19,2.11-.53,3.22-2.54,5.01-3.58,1.14-.66,2.48-.96,3.79-.88.34.02-.37-.12-.01,0,.12.04.71.25.37.1,1.78.78,3.3,2.26,4.71,3.55.89.81,2.66,1.96,2.87,3.25.22,1.37-1.14,2.92-2.05,3.77-2.81,2.62-7.11,3.37-10.82,3.18-6.61-.34-12.27-3.76-16.66-8.53-2.1-2.28-4.01-4.75-5.92-7.19s-3.84-4.98-5.04-7.86c-2.07-4.96-1.75-11.02.75-15.76,1.05-1.99,3.06-5.39,5.57-5.67,1.87-.21,3.14,1.81,4.06,3.12s1.76,2.76,2.47,4.25c.83,1.74,3.42.22,2.59-1.51Z"></path><path class="cls-1" d="M27.43,12.26l2.87-10.4c.51-1.86-2.38-2.66-2.89-.8l-2.87,10.4c-.51,1.86,2.38,2.66,2.89.8h0Z"></path><path class="cls-1" d="M38.98,19.82c2.53-2.45,5.06-4.89,7.6-7.34.57-.55.59-1.58,0-2.12s-1.52-.58-2.12,0c-2.53,2.45-5.06,4.89-7.6,7.34-.57.55-.59,1.58,0,2.12s1.52.58,2.12,0h0Z"></path><path class="cls-1" d="M45.46,32.84c3.66-1.02,7.32-2.04,10.98-3.06.78-.22,1.26-1.06,1.05-1.85s-1.06-1.27-1.85-1.05c-3.66,1.02-7.32,2.04-10.98,3.06-.78.22-1.26,1.06-1.05,1.85s1.06,1.27,1.85,1.05h0Z"></path></g></g></svg>