<svg width="350" height="246" viewBox="0 0 350 246" fill="none" xmlns="http://www.w3.org/2000/svg">
<path d="M18 166.7C8.3 166.7 0.5 158.8 0.5 149.2V109.3C0.5 99.6 8.4 91.8 18 91.8H87.1C98.5 91.8 107.7 101.1 107.7 112.4V133.1L105.7 133.7C96.7 136.3 90.5 144.6 90.5 153.9V166.7H18ZM18 97.4C11.5 97.4 6.1 102.7 6.1 109.3V149.2C6.1 155.7 11.4 161.1 18 161.1H84.8V153.9C84.8 142.8 91.8 132.8 102.1 129V112.4C102.1 104.1 95.4 97.4 87.1 97.4H18Z" fill="white"/>
<path d="M104.9 133.4H3.3C1.7 133.4 0.5 132.1 0.5 130.6C0.5 129.1 1.8 127.8 3.3 127.8H104.9C106.5 127.8 107.7 129.1 107.7 130.6C107.7 132.1 106.4 133.4 104.9 133.4Z" fill="white"/>
<path d="M74 97.4H34.2V87.5C34.2 81 39.5 75.8 45.9 75.8H62.3C68.8 75.8 74 81.1 74 87.5V97.4ZM39.8 91.8H68.3V87.5C68.3 84.1 65.6 81.4 62.2 81.4H45.9C42.5 81.4 39.8 84.1 39.8 87.5V91.8Z" fill="white"/>
<path d="M71.2 88.9H37C35.4 88.9 34.2 87.6 34.2 86.1C34.2 84.5 35.5 83.3 37 83.3H71.2C72.8 83.3 74 84.6 74 86.1C74 87.7 72.7 88.9 71.2 88.9Z" fill="white"/>
<path d="M64.5 127.7H43.6V138.8H64.5V127.7Z" fill="white"/>
<path d="M185.2 200.2H154.7V185.7H185.2V200.2ZM160.4 194.5H179.6V191.2H160.4V194.5Z" fill="white"/>
<path d="M228.6 245.4H127.3C125.7 245.4 124.5 244.1 124.5 242.6C124.5 241.1 125.8 239.8 127.3 239.8H228.6C240.2 239.8 249.6 230.4 249.6 218.8V159C249.6 144.6 237.9 132.9 223.5 132.9H111.4C99.8 132.9 90.4 142.3 90.4 153.9V218.7C90.4 230.3 99.8 239.7 111.4 239.7C113 239.7 114.2 241 114.2 242.5C114.2 244 112.9 245.3 111.4 245.3C96.7 245.3 84.7 233.3 84.7 218.6V153.8C84.7 139.1 96.7 127.1 111.4 127.1H223.5C241 127.1 255.2 141.3 255.2 158.8V218.5C255.2 233.4 243.3 245.4 228.6 245.4Z" fill="white"/>
<path d="M252.4 191.3H87.6C86 191.3 84.8 190 84.8 188.5C84.8 187 86.1 185.7 87.6 185.7H252.4C254 185.7 255.2 187 255.2 188.5C255.2 190 254 191.3 252.4 191.3Z" fill="white"/>
<path d="M200.6 132.9H139.5V113C139.5 106.5 144.8 101.3 151.2 101.3H188.9C195.4 101.3 200.6 106.6 200.6 113V132.9ZM194.9 127.3V113.1C194.9 109.7 192.2 107 188.8 107H151.1C147.7 107 145 109.7 145 113.1V127.3H194.9Z" fill="white"/>
<path d="M197.7 119.1H142.2C140.6 119.1 139.4 117.8 139.4 116.3C139.4 114.8 140.7 113.5 142.2 113.5H197.7C199.3 113.5 200.5 114.8 200.5 116.3C200.5 117.8 199.3 119.1 197.7 119.1Z" fill="white"/>
<path d="M185.2 200.2H154.7V185.7H185.2V200.2ZM160.4 194.5H179.6V191.2H160.4V194.5Z" fill="white"/>
<path d="M69 209.5H38.4C24.9 209.5 13.9 198.5 13.9 185V177.5C13.9 175.6 15.5 174 17.4 174C19.3 174 20.9 175.6 20.9 177.5V185C20.9 194.6 28.7 202.5 38.4 202.5H69C70.9 202.5 72.5 204.1 72.5 206C72.6 207.9 71 209.5 69 209.5Z" fill="white"/>
<path d="M55.7 218C54.5 218 53.2 217.3 52.6 216.2C51.7 214.5 52.3 212.3 54 211.4L63.7 206.1L54.2 201.3C52.5 200.4 51.8 198.3 52.6 196.6C53.5 194.9 55.6 194.2 57.3 195L72.9 202.8C74.1 203.4 74.8 204.6 74.9 205.9C75 207.2 74.2 208.4 73.1 209.1L57.5 217.6C56.8 217.8 56.3 218 55.7 218Z" fill="white"/>
<path d="M166.9 96.3999C165 96.3999 163.4 94.7999 163.4 92.8999V85.3999C163.4 75.7999 155.6 67.8999 145.9 67.8999H94.1C92.2 67.8999 90.6 66.2999 90.6 64.3999C90.6 62.4999 92.2 60.9 94.1 60.9H146C159.5 60.9 170.5 71.8999 170.5 85.3999V92.8999C170.5 94.7999 168.9 96.3999 166.9 96.3999Z" fill="white"/>
<path d="M107.5 75.7C107 75.7 106.4 75.6 105.9 75.3L90.3 67.5C89.1 66.9 88.4 65.7 88.3 64.4C88.3 63.1 89 61.8999 90.1 61.1999L105.7 52.6999C107.4 51.7999 109.6 52.3999 110.5 54.0999C111.4 55.7999 110.8 58 109.1 58.9L99.4 64.1999L108.9 69C110.6 69.9 111.3 72 110.5 73.7C110 75 108.8 75.7 107.5 75.7Z" fill="white"/>
<path d="M334 143C332.4 143 331.2 141.7 331.2 140.2C331.2 110.9 307.4 87.0999 278.1 87.0999C253.2 87.0999 231.9 104 226.3 128.3C226 129.8 224.4 130.8 222.9 130.4C221.4 130.1 220.4 128.5 220.8 127C227 100.2 250.5 81.3999 278.1 81.3999C310.5 81.3999 336.9 107.8 336.9 140.2C336.8 141.7 335.5 143 334 143Z" fill="white"/>
<path d="M278 77.5999C256.6 77.5999 239.3 60.2 239.3 38.9C239.3 17.6 256.7 0.199951 278 0.199951C299.3 0.199951 316.7 17.6 316.7 38.9C316.7 60.2 299.4 77.5999 278 77.5999ZM278 5.69995C259.8 5.69995 244.9 20.5 244.9 38.7999C244.9 57.0999 259.7 71.8999 278 71.8999C296.2 71.8999 311.1 57.0999 311.1 38.7999C311.1 20.5 296.2 5.69995 278 5.69995Z" fill="white"/>
<path d="M347.2 143H278C276.4 143 275.2 141.7 275.2 140.2C275.2 138.7 276.5 137.4 278 137.4H347.2C348.8 137.4 350 138.7 350 140.2C350 141.7 348.7 143 347.2 143Z" fill="white"/>
<path d="M263.1 143H248.2C246.6 143 245.4 141.7 245.4 140.2C245.4 138.6 246.7 137.4 248.2 137.4H263.1C264.7 137.4 265.9 138.7 265.9 140.2C265.9 141.7 264.6 143 263.1 143Z" fill="white"/>
<path d="M273.6 209.8H267.3C265.4 209.8 263.8 208.2 263.8 206.3C263.8 204.4 265.4 202.8 267.3 202.8H273.6C290.8 202.8 304.8 188.8 304.8 171.6V159.4C304.8 157.5 306.4 155.9 308.3 155.9C310.2 155.9 311.8 157.5 311.8 159.4V171.6C311.9 192.6 294.7 209.8 273.6 209.8Z" fill="white"/>
<path d="M17.4 78.3C15.5 78.3 13.9 76.7 13.9 74.8V60.5999C13.9 39.4999 31.1 22.2999 52.2 22.2999H223.8C225.7 22.2999 227.3 23.8999 227.3 25.7999C227.3 27.6999 225.7 29.2999 223.8 29.2999H52.2C35 29.2999 21 43.2999 21 60.5V74.5999C20.9 76.6999 19.4 78.3 17.4 78.3Z" fill="white"/>
</svg>
