<svg xmlns="http://www.w3.org/2000/svg" width="292" height="233" viewBox="0 0 292 233" fill="none"><path d="M265.4 232.7H164.1C162.5 232.7 161.3 231.4 161.3 229.9C161.3 228.4 162.6 227.1 164.1 227.1H265.4C277 227.1 286.4 217.7 286.4 206.1V146.4C286.4 132 274.7 120.3 260.3 120.3H148.2C136.6 120.3 127.2 129.7 127.2 141.3V206C127.2 217.6 136.6 227 148.2 227C149.8 227 151 228.3 151 229.8C151 231.3 149.7 232.6 148.2 232.6C133.5 232.6 121.5 220.6 121.5 205.9V141.1C121.5 126.4 133.5 114.4 148.2 114.4H260.3C277.8 114.4 292 128.6 292 146.1V206C292 220.7 280.1 232.7 265.4 232.7Z" fill="white"></path><path d="M289.2 178.6H124.4C122.8 178.6 121.6 177.3 121.6 175.8C121.6 174.2 122.9 173 124.4 173H289.2C290.8 173 292 174.3 292 175.8C292 177.3 290.8 178.6 289.2 178.6Z" fill="white"></path><path d="M237.3 120.2H176.2V100.3C176.2 93.7999 181.5 88.5999 187.9 88.5999H225.6C232.1 88.5999 237.3 93.8999 237.3 100.3V120.2ZM231.7 114.6V100.4C231.7 96.9999 229 94.2999 225.6 94.2999H187.9C184.5 94.2999 181.8 96.9999 181.8 100.4V114.6H231.7Z" fill="white"></path><path d="M234.5 106.4H179C177.4 106.4 176.2 105.1 176.2 103.6C176.2 102 177.5 100.8 179 100.8H234.5C236.1 100.8 237.3 102.1 237.3 103.6C237.3 105.2 236.1 106.4 234.5 106.4Z" fill="white"></path><path d="M222 187.5H191.5V173H222V187.5ZM197.2 181.8H216.4V178.5H197.2V181.8Z" fill="white"></path><path d="M101.1 199H63.5C47.4 199 34.3 185.9 34.3 169.8V160.6C34.3 158.7 35.9 157.1 37.8 157.1C39.7 157.1 41.3 158.7 41.3 160.6V169.8C41.3 182 51.2 192 63.5 192H101C102.9 192 104.5 193.6 104.5 195.5C104.5 197.4 103 199 101.1 199Z" fill="white"></path><path d="M84.8 209.3C83.5 209.3 82.3 208.6 81.7 207.5C80.8 205.8 81.4 203.6 83.1 202.7L96.3 195.5L83.3 189C81.6 188.1 80.9 186 81.7 184.3C82.6 182.6 84.7 181.8 86.4 182.7L105.5 192.2C106.7 192.8 107.4 194 107.5 195.3C107.5 196.6 106.8 197.8 105.7 198.5L86.6 208.9C85.9 209.2 85.3 209.3 84.8 209.3Z" fill="white"></path><path d="M201 79.7999C199.1 79.7999 197.5 78.1999 197.5 76.2999V67.0999C197.5 54.8999 187.6 44.8999 175.3 44.8999H137.8C135.9 44.8999 134.3 43.2999 134.3 41.3999C134.3 39.4999 135.9 37.8999 137.8 37.8999H175.3C191.4 37.8999 204.5 50.9999 204.5 67.0999V76.2999C204.5 78.2999 202.9 79.7999 201 79.7999Z" fill="white"></path><path d="M154.1 54.4999C153.6 54.4999 153 54.3999 152.5 54.0999L133.4 44.5999C132.2 43.9999 131.5 42.7999 131.4 41.4999C131.4 40.1999 132.1 38.9999 133.2 38.2999L152.4 27.9999C154.1 27.0999 156.3 27.6999 157.2 29.3999C158.1 31.0999 157.5 33.2999 155.8 34.1999L142.6 41.3999L155.6 47.8999C157.3 48.7999 158 50.8999 157.2 52.5999C156.6 53.7999 155.4 54.4999 154.1 54.4999Z" fill="white"></path><path d="M16.5 143.7C14.9 143.7 13.7 142.4 13.7 140.9C13.7 108.5 40.1 82.0999 72.5 82.0999C100.1 82.0999 123.6 100.8 129.8 127.7C130.1 129.2 129.2 130.7 127.7 131.1C126.2 131.4 124.7 130.5 124.3 129C118.7 104.7 97.4 87.7999 72.5 87.7999C43.2 87.7999 19.4 111.6 19.4 140.9C19.3 142.4 18 143.7 16.5 143.7Z" fill="white"></path><path d="M72.5 78.2999C51.1 78.2999 33.8 60.8999 33.8 39.5999C33.8 18.1999 51.2 0.899902 72.5 0.899902C93.8 0.899902 111.2 18.2999 111.2 39.5999C111.2 60.8999 93.8 78.2999 72.5 78.2999ZM72.5 6.3999C54.3 6.3999 39.4 21.1999 39.4 39.4999C39.4 57.7999 54.2 72.5999 72.5 72.5999C90.8 72.5999 105.6 57.7999 105.6 39.4999C105.6 21.1999 90.7 6.3999 72.5 6.3999Z" fill="white"></path><path d="M72.5 143.7H3.3C1.7 143.7 0.5 142.4 0.5 140.9C0.5 139.3 1.8 138.1 3.3 138.1H72.5C74.1 138.1 75.3 139.4 75.3 140.9C75.3 142.4 74 143.7 72.5 143.7Z" fill="white"></path><path d="M124.4 143.7H88.7C87.1 143.7 85.9 142.4 85.9 140.9C85.9 139.3 87.2 138.1 88.7 138.1H124.4C126 138.1 127.2 139.4 127.2 140.9C127.2 142.4 125.9 143.7 124.4 143.7Z" fill="white"></path></svg>