<svg xmlns="http://www.w3.org/2000/svg" width="311" height="234" viewBox="0 0 311 234" fill="none"><path d="M145.6 144.4H42.6C41 144.4 39.8 143.1 39.8 141.6C39.8 140.1 41.1 138.8 42.6 138.8H140.2C141.8 126.3 152.2 116.4 164.9 115.6V58.0999C164.9 43.6999 153.2 31.9999 138.8 31.9999H26.7C15.1 31.9999 5.7 41.3999 5.7 52.9999V117.8C5.7 129.4 15.1 138.8 26.7 138.8C28.3 138.8 29.5 140.1 29.5 141.6C29.5 143.1 28.2 144.4 26.7 144.4C12 144.4 0 132.4 0 117.7V52.9999C0 38.2999 12 26.2999 26.7 26.2999H138.8C156.3 26.2999 170.5 40.4999 170.5 57.9999V117.7C170.5 117.9 170.5 118 170.5 118.2L170.4 121L166.6 121.1C155.3 121.1 145.9 130.3 145.6 141.6V144.4Z" fill="white"></path><path d="M167.7 90.2999H2.9C1.3 90.2999 0.1 88.9999 0.1 87.4999C0.1 85.8999 1.4 84.6999 2.9 84.6999H167.7C169.3 84.6999 170.5 85.9999 170.5 87.4999C170.5 89.0999 169.3 90.2999 167.7 90.2999Z" fill="white"></path><path d="M115.8 31.9999H54.7V12.0999C54.7 5.5999 60 0.399902 66.4 0.399902H104.1C110.6 0.399902 115.8 5.6999 115.8 12.0999V31.9999ZM60.4 26.2999H110.2V12.0999C110.2 8.6999 107.5 5.9999 104.1 5.9999H66.5C63.1 5.9999 60.4 8.6999 60.4 12.0999V26.2999Z" fill="white"></path><path d="M113 18.1999H57.6C56 18.1999 54.8 16.8999 54.8 15.3999C54.8 13.8999 56.1 12.5999 57.6 12.5999H113C114.6 12.5999 115.8 13.8999 115.8 15.3999C115.8 16.8999 114.6 18.1999 113 18.1999Z" fill="white"></path><path d="M70.1 99.1999V84.6999H100.6V99.1999H70.1ZM75.7 93.5999H94.9V90.2999H75.7V93.5999Z" fill="white"></path><path d="M283.8 233.6H182.5C180.9 233.6 179.7 232.3 179.7 230.8C179.7 229.3 181 228 182.5 228H283.8C295.4 228 304.8 218.6 304.8 207V147.3C304.8 132.9 293.1 121.2 278.7 121.2H166.6C155 121.2 145.6 130.6 145.6 142.2V207C145.6 218.6 155 228 166.6 228C168.2 228 169.4 229.3 169.4 230.8C169.4 232.3 168.1 233.6 166.6 233.6C151.9 233.6 139.9 221.6 139.9 206.9V142.1C139.9 127.4 151.9 115.4 166.6 115.4H278.7C296.2 115.4 310.4 129.6 310.4 147.1V206.8C310.4 221.6 298.5 233.6 283.8 233.6Z" fill="white"></path><path d="M307.6 179.5H142.8C141.2 179.5 140 178.2 140 176.7C140 175.1 141.3 173.9 142.8 173.9H307.6C309.2 173.9 310.4 175.2 310.4 176.7C310.4 178.2 309.2 179.5 307.6 179.5Z" fill="white"></path><path d="M255.7 121.1H194.6V101.2C194.6 94.6999 199.9 89.4999 206.3 89.4999H244C250.5 89.4999 255.7 94.7999 255.7 101.2V121.1ZM250.1 115.5V101.3C250.1 97.8999 247.4 95.1999 244 95.1999H206.3C202.9 95.1999 200.2 97.8999 200.2 101.3V115.5H250.1Z" fill="white"></path><path d="M252.9 107.4H197.4C195.8 107.4 194.6 106.1 194.6 104.6C194.6 103 195.9 101.8 197.4 101.8H252.9C254.5 101.8 255.7 103.1 255.7 104.6C255.7 106.1 254.5 107.4 252.9 107.4Z" fill="white"></path><path d="M210 188.4V173.9H240.5V188.4H210ZM215.6 182.8H234.8V179.5H215.6V182.8Z" fill="white"></path><path d="M122.3 199.9H84.8C68.7 199.9 55.6 186.8 55.6 170.7V161.5C55.6 159.6 57.2 158 59.1 158C61 158 62.6 159.6 62.6 161.5V170.7C62.6 182.9 72.5 192.9 84.8 192.9H122.3C124.2 192.9 125.8 194.5 125.8 196.4C125.8 198.3 124.3 199.9 122.3 199.9Z" fill="white"></path><path d="M106 210.2C104.7 210.2 103.5 209.5 102.9 208.4C102 206.7 102.6 204.5 104.3 203.6L117.5 196.4L104.5 189.9C102.8 189 102.1 186.9 102.9 185.2C103.8 183.5 105.9 182.7 107.6 183.6L126.7 193.1C127.9 193.7 128.6 194.9 128.7 196.2C128.7 197.5 128 198.7 126.9 199.4L107.8 209.8C107.1 210.1 106.5 210.2 106 210.2Z" fill="white"></path><path d="M249 83.5999C247.1 83.5999 245.5 81.9999 245.5 80.0999V70.8999C245.5 58.6999 235.6 48.6999 223.3 48.6999H185.8C183.9 48.6999 182.3 47.0999 182.3 45.1999C182.3 43.2999 183.9 41.6999 185.8 41.6999H223.3C239.4 41.6999 252.5 54.7999 252.5 70.8999V80.0999C252.6 81.9999 251 83.5999 249 83.5999Z" fill="white"></path><path d="M202.1 58.2999C201.6 58.2999 201 58.1999 200.5 57.8999L181.4 48.3999C180.2 47.7999 179.5 46.5999 179.4 45.2999C179.4 43.9999 180.1 42.7999 181.2 42.0999L200.3 31.6999C202 30.7999 204.2 31.3999 205.1 33.0999C206 34.7999 205.4 36.9999 203.7 37.8999L190.5 45.0999L203.5 51.5999C205.2 52.4999 205.9 54.5999 205.1 56.2999C204.7 57.5999 203.4 58.2999 202.1 58.2999Z" fill="white"></path></svg>